<?xml version="1.0" encoding="utf-8"?>
<!-- Generator: Adobe Illustrator 24.1.2, SVG Export Plug-In . SVG Version: 6.00 Build 0)  -->
<svg version="1.1" id="Слой_1" xmlns="http://www.w3.org/2000/svg" xmlns:xlink="http://www.w3.org/1999/xlink" x="0px" y="0px"
	 viewBox="0 0 260.5 254.5" style="enable-background:new 0 0 260.5 254.5;" xml:space="preserve">
<style type="text/css">
	.st0{fill:#42E8E0;}
	.st1{opacity:0.5;fill:#42E8E0;enable-background:new    ;}
	.st2{opacity:0.11;}
	.st3{fill:url(#SVGID_1_);}
	.st4{fill:url(#SVGID_2_);}
	.st5{fill:url(#SVGID_3_);}
	.st6{fill:url(#SVGID_4_);}
	.st7{opacity:0.11;fill:url(#SVGID_5_);enable-background:new    ;}
	.st8{fill:url(#SVGID_6_);}
	.st9{fill:url(#SVGID_7_);}
	.st10{fill:url(#SVGID_8_);}
	.st11{fill:url(#SVGID_9_);}
	.st12{opacity:0.5;fill:url(#SVGID_10_);enable-background:new    ;}
	.st13{fill:url(#SVGID_11_);}
	.st14{fill:url(#SVGID_12_);}
	.st15{opacity:0.2;fill:#180D5B;enable-background:new    ;}
	.st16{fill:#160A5B;}
	.st17{fill:#24126A;}
	.st18{fill:url(#SVGID_13_);}
	.st19{fill:url(#SVGID_14_);}
	.st20{fill:#4846A5;}
	.st21{fill:#FCD1C5;}
	.st22{fill:#453C9E;}
	.st23{fill:url(#SVGID_15_);}
	.st24{fill:#F0F6FF;}
	.st25{fill:#AA8383;}
	.st26{fill:#C4CCD6;}
	.st27{fill:#E2B1A6;}
	.st28{fill:#1B2B3A;}
	.st29{fill:#936D6D;}
	.st30{fill:url(#SVGID_16_);}
	.st31{fill:url(#SVGID_17_);}
	.st32{fill:url(#SVGID_18_);}
	.st33{fill:url(#SVGID_19_);}
	.st34{fill:url(#SVGID_20_);}
	.st35{fill:url(#SVGID_21_);}
	.st36{fill:#722318;}
	.st37{fill:url(#SVGID_22_);}
	.st38{fill:url(#SVGID_23_);}
	.st39{fill:#8686F2;}
	.st40{fill:url(#SVGID_24_);}
	.st41{fill:#BCBEFF;}
	.st42{fill:#FFFFFF;}
	.st43{fill:#0F054C;}
	.st44{opacity:0.5;fill:url(#SVGID_25_);enable-background:new    ;}
	.st45{opacity:0.5;fill:url(#SVGID_26_);enable-background:new    ;}
	.st46{opacity:0.5;fill:url(#SVGID_27_);enable-background:new    ;}
	.st47{opacity:0.5;fill:url(#SVGID_28_);enable-background:new    ;}
	.st48{opacity:0.5;fill:url(#SVGID_29_);enable-background:new    ;}
	.st49{opacity:0.5;fill:url(#SVGID_30_);enable-background:new    ;}
	.st50{opacity:0.8;fill:#42E8E0;enable-background:new    ;}
	.st51{fill:url(#SVGID_31_);}
	.st52{opacity:0.5;fill:url(#SVGID_32_);enable-background:new    ;}
	.st53{opacity:0.5;fill:url(#SVGID_33_);enable-background:new    ;}
	.st54{opacity:0.5;fill:url(#SVGID_34_);enable-background:new    ;}
	.st55{opacity:0.5;fill:url(#SVGID_35_);enable-background:new    ;}
	.st56{opacity:0.5;fill:url(#SVGID_36_);enable-background:new    ;}
	.st57{opacity:0.5;fill:url(#SVGID_37_);enable-background:new    ;}
	.st58{fill:url(#SVGID_38_);}
	.st59{opacity:0.5;fill:url(#SVGID_39_);enable-background:new    ;}
	.st60{opacity:0.5;fill:url(#SVGID_40_);enable-background:new    ;}
	.st61{opacity:0.5;fill:url(#SVGID_41_);enable-background:new    ;}
	.st62{opacity:0.5;fill:url(#SVGID_42_);enable-background:new    ;}
	.st63{opacity:0.5;fill:url(#SVGID_43_);enable-background:new    ;}
	.st64{opacity:0.5;fill:url(#SVGID_44_);enable-background:new    ;}
	.st65{fill:url(#SVGID_45_);}
	.st66{opacity:0.5;fill:url(#SVGID_46_);enable-background:new    ;}
	.st67{opacity:0.5;fill:url(#SVGID_47_);enable-background:new    ;}
	.st68{opacity:0.5;fill:url(#SVGID_48_);enable-background:new    ;}
	.st69{opacity:0.5;fill:url(#SVGID_49_);enable-background:new    ;}
	.st70{opacity:0.5;fill:url(#SVGID_50_);enable-background:new    ;}
	.st71{opacity:0.5;fill:url(#SVGID_51_);enable-background:new    ;}
	.st72{opacity:0.5;}
</style>
<g id="Слой_1_1_">
	<path class="st0" d="M251.7,59.3c2.6,0.7,5.2,1.4,7.7,2.1V80c-2.5-0.7-5.1-1.4-7.7-2.1V59.3z"/>
	<path class="st1" d="M233.9,60.1c2.8,0.5,5.5,1.1,8.3,1.7v13.8c-2.7-0.6-5.5-1.2-8.3-1.7L233.9,60.1L233.9,60.1z"/>
	<path class="st0" d="M214.9,44.9c3,0.4,5.9,0.8,8.8,1.3v25.9c-2.9-0.4-5.8-0.9-8.8-1.3V44.9z"/>
	<path class="st1" d="M195,28.6c3.1,0.2,6.1,0.5,9.2,0.8v40.3c-3-0.3-6.1-0.6-9.2-0.8V28.6z"/>
	<path class="st1" d="M174.3,37.2c3.2,0.1,6.4,0.1,9.5,0.3v30.7c-3.2-0.1-6.3-0.2-9.5-0.3V37.2z"/>
	<path class="st0" d="M153.3,5.1c3.1-0.1,6.3-0.2,9.5-0.3v63.1c-3.2,0.1-6.3,0.1-9.5,0.3V5.1z"/>
	<path class="st0" d="M133,18.1c3-0.3,6-0.5,9.1-0.8v51.5c-3.1,0.2-6.1,0.5-9.1,0.8V18.1z"/>
	<path class="st0" d="M113.6,1.2c2.9-0.4,5.8-0.9,8.7-1.2v70.8c-2.9,0.4-5.9,0.8-8.7,1.2V1.2z"/>
	<g class="st2">
		
			<linearGradient id="SVGID_1_" gradientUnits="userSpaceOnUse" x1="364.7713" y1="-31.2222" x2="493.2987" y2="-31.2222" gradientTransform="matrix(1 0 0 -1 -274.63 186.8198)">
			<stop  offset="0" style="stop-color:#5761D7"/>
			<stop  offset="7.000000e-02" style="stop-color:#5472D8"/>
			<stop  offset="0.28" style="stop-color:#4E9CDB"/>
			<stop  offset="0.48" style="stop-color:#49BDDD"/>
			<stop  offset="0.67" style="stop-color:#45D5DF"/>
			<stop  offset="0.85" style="stop-color:#43E3E0"/>
			<stop  offset="1" style="stop-color:#42E8E0"/>
		</linearGradient>
		<path class="st3" d="M159.4,182.9c-3-1.8-6.8-1.8-9.9,0l-58.7,33.8c-0.7,0.4-0.9,1.2-0.5,1.9c0.1,0.2,0.3,0.4,0.5,0.5l59.2,34.2
			c2.7,1.6,6,1.6,8.7,0l59.3-34.1c0.7-0.4,0.9-1.2,0.5-1.9c-0.1-0.2-0.3-0.4-0.5-0.5L159.4,182.9z"/>
	</g>
	<g class="st2">
		
			<linearGradient id="SVGID_2_" gradientUnits="userSpaceOnUse" x1="364.7713" y1="-21.3433" x2="493.2987" y2="-21.3433" gradientTransform="matrix(1 0 0 -1 -274.63 186.8198)">
			<stop  offset="0" style="stop-color:#5761D7"/>
			<stop  offset="7.000000e-02" style="stop-color:#5472D8"/>
			<stop  offset="0.28" style="stop-color:#4E9CDB"/>
			<stop  offset="0.48" style="stop-color:#49BDDD"/>
			<stop  offset="0.67" style="stop-color:#45D5DF"/>
			<stop  offset="0.85" style="stop-color:#43E3E0"/>
			<stop  offset="1" style="stop-color:#42E8E0"/>
		</linearGradient>
		<path class="st4" d="M159.4,173c-3-1.8-6.8-1.8-9.9,0l-58.7,33.8c-0.7,0.4-0.9,1.2-0.5,1.9c0.1,0.2,0.3,0.4,0.5,0.5l59.2,34.2
			c2.7,1.6,6,1.6,8.7,0l59.3-34.1c0.7-0.4,0.9-1.2,0.5-1.9c-0.1-0.2-0.3-0.4-0.5-0.5L159.4,173z"/>
	</g>
	<g class="st2">
		
			<linearGradient id="SVGID_3_" gradientUnits="userSpaceOnUse" x1="364.7313" y1="-11.4468" x2="493.2588" y2="-11.4468" gradientTransform="matrix(1 0 0 -1 -274.63 186.8198)">
			<stop  offset="0" style="stop-color:#5761D7"/>
			<stop  offset="7.000000e-02" style="stop-color:#5472D8"/>
			<stop  offset="0.28" style="stop-color:#4E9CDB"/>
			<stop  offset="0.48" style="stop-color:#49BDDD"/>
			<stop  offset="0.67" style="stop-color:#45D5DF"/>
			<stop  offset="0.85" style="stop-color:#43E3E0"/>
			<stop  offset="1" style="stop-color:#42E8E0"/>
		</linearGradient>
		<path class="st5" d="M159.4,163.2c-3-1.8-6.8-1.8-9.9,0l-58.7,33.8c-0.7,0.4-0.9,1.2-0.5,1.9c0.1,0.2,0.3,0.4,0.5,0.5l59.2,34.2
			c2.7,1.6,6,1.6,8.7,0l59.3-34.1c0.7-0.4,0.9-1.2,0.5-1.9c-0.1-0.2-0.3-0.4-0.5-0.5L159.4,163.2z"/>
	</g>
	<g class="st2">
		
			<linearGradient id="SVGID_4_" gradientUnits="userSpaceOnUse" x1="364.7713" y1="-1.5706" x2="493.2987" y2="-1.5706" gradientTransform="matrix(1 0 0 -1 -274.63 186.8198)">
			<stop  offset="0" style="stop-color:#5761D7"/>
			<stop  offset="7.000000e-02" style="stop-color:#5472D8"/>
			<stop  offset="0.28" style="stop-color:#4E9CDB"/>
			<stop  offset="0.48" style="stop-color:#49BDDD"/>
			<stop  offset="0.67" style="stop-color:#45D5DF"/>
			<stop  offset="0.85" style="stop-color:#43E3E0"/>
			<stop  offset="1" style="stop-color:#42E8E0"/>
		</linearGradient>
		<path class="st6" d="M159.4,153.3c-3-1.8-6.8-1.8-9.9,0l-58.7,33.8c-0.7,0.4-0.9,1.2-0.5,1.9c0.1,0.2,0.3,0.4,0.5,0.5l59.2,34.2
			c2.7,1.6,6,1.6,8.7,0l59.3-34.1c0.7-0.4,0.9-1.2,0.5-1.9c-0.1-0.2-0.3-0.4-0.5-0.5L159.4,153.3z"/>
	</g>
	
		<linearGradient id="SVGID_5_" gradientUnits="userSpaceOnUse" x1="364.7699" y1="-16.3907" x2="493.3" y2="-16.3907" gradientTransform="matrix(1 0 0 -1 -274.63 186.8198)">
		<stop  offset="0" style="stop-color:#5761D7"/>
		<stop  offset="7.000000e-02" style="stop-color:#5472D8"/>
		<stop  offset="0.28" style="stop-color:#4E9CDB"/>
		<stop  offset="0.48" style="stop-color:#49BDDD"/>
		<stop  offset="0.67" style="stop-color:#45D5DF"/>
		<stop  offset="0.85" style="stop-color:#43E3E0"/>
		<stop  offset="1" style="stop-color:#42E8E0"/>
	</linearGradient>
	<path class="st7" d="M217.9,187.1l-58.6-33.8c-3-1.8-6.8-1.8-9.9,0l-58.7,33.8c-0.4,0.2-0.7,0.7-0.7,1.2v29.6c0,0.5,0.3,1,0.7,1.2
		l59.2,34.2c2.7,1.6,6,1.6,8.7,0l59.3-34.1c0.4-0.2,0.7-0.7,0.7-1.2v-29.6l0,0C218.7,187.8,218.4,187.3,217.9,187.1z"/>
	<g class="st2">
		
			<linearGradient id="SVGID_6_" gradientUnits="userSpaceOnUse" x1="364.7713" y1="9.6694" x2="493.2987" y2="9.6694" gradientTransform="matrix(1 0 0 -1 -274.63 186.8198)">
			<stop  offset="0" style="stop-color:#5761D7"/>
			<stop  offset="7.000000e-02" style="stop-color:#5472D8"/>
			<stop  offset="0.28" style="stop-color:#4E9CDB"/>
			<stop  offset="0.48" style="stop-color:#49BDDD"/>
			<stop  offset="0.67" style="stop-color:#45D5DF"/>
			<stop  offset="0.85" style="stop-color:#43E3E0"/>
			<stop  offset="1" style="stop-color:#42E8E0"/>
		</linearGradient>
		<path class="st8" d="M159.4,142c-3-1.8-6.8-1.8-9.9,0l-58.7,33.8c-0.7,0.4-0.9,1.2-0.5,1.9c0.1,0.2,0.3,0.4,0.5,0.5l59.2,34.2
			c2.7,1.6,6,1.6,8.7,0l59.3-34.1c0.7-0.4,0.9-1.2,0.5-1.9c-0.1-0.2-0.3-0.4-0.5-0.5L159.4,142z"/>
	</g>
	<g class="st2">
		
			<linearGradient id="SVGID_7_" gradientUnits="userSpaceOnUse" x1="364.7313" y1="19.5717" x2="493.2588" y2="19.5717" gradientTransform="matrix(1 0 0 -1 -274.63 186.8198)">
			<stop  offset="0" style="stop-color:#5761D7"/>
			<stop  offset="7.000000e-02" style="stop-color:#5472D8"/>
			<stop  offset="0.28" style="stop-color:#4E9CDB"/>
			<stop  offset="0.48" style="stop-color:#49BDDD"/>
			<stop  offset="0.67" style="stop-color:#45D5DF"/>
			<stop  offset="0.85" style="stop-color:#43E3E0"/>
			<stop  offset="1" style="stop-color:#42E8E0"/>
		</linearGradient>
		<path class="st9" d="M159.4,132.1c-3-1.8-6.8-1.8-9.9,0l-58.7,33.8c-0.7,0.4-0.9,1.2-0.5,1.9c0.1,0.2,0.3,0.4,0.5,0.5l59.2,34.2
			c2.7,1.6,6,1.6,8.7,0l59.3-34.1c0.7-0.4,0.9-1.2,0.5-1.9c-0.1-0.2-0.3-0.4-0.5-0.5L159.4,132.1z"/>
	</g>
	<g class="st2">
		
			<linearGradient id="SVGID_8_" gradientUnits="userSpaceOnUse" x1="364.7713" y1="29.4532" x2="493.2588" y2="29.4532" gradientTransform="matrix(1 0 0 -1 -274.63 186.8198)">
			<stop  offset="0" style="stop-color:#5761D7"/>
			<stop  offset="7.000000e-02" style="stop-color:#5472D8"/>
			<stop  offset="0.28" style="stop-color:#4E9CDB"/>
			<stop  offset="0.48" style="stop-color:#49BDDD"/>
			<stop  offset="0.67" style="stop-color:#45D5DF"/>
			<stop  offset="0.85" style="stop-color:#43E3E0"/>
			<stop  offset="1" style="stop-color:#42E8E0"/>
		</linearGradient>
		<path class="st10" d="M159.4,122.3c-3-1.8-6.8-1.8-9.9,0l-58.7,33.8c-0.7,0.4-0.9,1.2-0.5,1.9c0.1,0.2,0.3,0.4,0.5,0.5l59.1,34.2
			c2.7,1.6,6,1.6,8.7,0l59.3-34.1c0.7-0.4,0.9-1.2,0.5-1.9c-0.1-0.2-0.3-0.4-0.5-0.5L159.4,122.3z"/>
	</g>
	<g class="st2">
		
			<linearGradient id="SVGID_9_" gradientUnits="userSpaceOnUse" x1="364.7713" y1="39.3294" x2="493.2987" y2="39.3294" gradientTransform="matrix(1 0 0 -1 -274.63 186.8198)">
			<stop  offset="0" style="stop-color:#5761D7"/>
			<stop  offset="7.000000e-02" style="stop-color:#5472D8"/>
			<stop  offset="0.28" style="stop-color:#4E9CDB"/>
			<stop  offset="0.48" style="stop-color:#49BDDD"/>
			<stop  offset="0.67" style="stop-color:#45D5DF"/>
			<stop  offset="0.85" style="stop-color:#43E3E0"/>
			<stop  offset="1" style="stop-color:#42E8E0"/>
		</linearGradient>
		<path class="st11" d="M159.4,112.4c-3-1.8-6.8-1.8-9.9,0l-58.7,33.8c-0.7,0.4-0.9,1.2-0.5,1.9c0.1,0.2,0.3,0.4,0.5,0.5l59.2,34.2
			c2.7,1.6,6,1.6,8.7,0l59.3-34.1c0.7-0.4,0.9-1.2,0.5-1.9c-0.1-0.2-0.3-0.4-0.5-0.5L159.4,112.4z"/>
	</g>
	
		<linearGradient id="SVGID_10_" gradientUnits="userSpaceOnUse" x1="364.7699" y1="24.4994" x2="493.3" y2="24.4994" gradientTransform="matrix(1 0 0 -1 -274.63 186.8198)">
		<stop  offset="0" style="stop-color:#5761D7"/>
		<stop  offset="7.000000e-02" style="stop-color:#5472D8"/>
		<stop  offset="0.28" style="stop-color:#4E9CDB"/>
		<stop  offset="0.48" style="stop-color:#49BDDD"/>
		<stop  offset="0.67" style="stop-color:#45D5DF"/>
		<stop  offset="0.85" style="stop-color:#43E3E0"/>
		<stop  offset="1" style="stop-color:#42E8E0"/>
	</linearGradient>
	<path class="st12" d="M217.9,146.2l-58.6-33.8c-3-1.8-6.8-1.8-9.9,0l-58.7,33.8c-0.4,0.2-0.7,0.7-0.7,1.2V177c0,0.5,0.3,1,0.7,1.2
		l59.2,34.2c2.7,1.6,6,1.6,8.7,0l59.3-34.1c0.4-0.2,0.7-0.7,0.7-1.2v-29.7l0,0C218.7,146.9,218.4,146.4,217.9,146.2z"/>
	<g class="st2">
		
			<linearGradient id="SVGID_11_" gradientUnits="userSpaceOnUse" x1="364.7713" y1="39.3294" x2="493.2987" y2="39.3294" gradientTransform="matrix(1 0 0 -1 -274.63 186.8198)">
			<stop  offset="0" style="stop-color:#5761D7"/>
			<stop  offset="7.000000e-02" style="stop-color:#5472D8"/>
			<stop  offset="0.28" style="stop-color:#4E9CDB"/>
			<stop  offset="0.48" style="stop-color:#49BDDD"/>
			<stop  offset="0.67" style="stop-color:#45D5DF"/>
			<stop  offset="0.85" style="stop-color:#43E3E0"/>
			<stop  offset="1" style="stop-color:#42E8E0"/>
		</linearGradient>
		<path class="st13" d="M159.4,112.4c-3-1.8-6.8-1.8-9.9,0l-58.7,33.8c-0.7,0.4-0.9,1.2-0.5,1.9c0.1,0.2,0.3,0.4,0.5,0.5l59.2,34.2
			c2.7,1.6,6,1.6,8.7,0l59.3-34.1c0.7-0.4,0.9-1.2,0.5-1.9c-0.1-0.2-0.3-0.4-0.5-0.5L159.4,112.4z"/>
	</g>
	
		<linearGradient id="SVGID_12_" gradientUnits="userSpaceOnUse" x1="364.7312" y1="21.5195" x2="493.2592" y2="21.5195" gradientTransform="matrix(1 0 0 -1 -274.63 186.8198)">
		<stop  offset="0" style="stop-color:#5761D7"/>
		<stop  offset="7.000000e-02" style="stop-color:#5472D8"/>
		<stop  offset="0.28" style="stop-color:#4E9CDB"/>
		<stop  offset="0.48" style="stop-color:#49BDDD"/>
		<stop  offset="0.67" style="stop-color:#45D5DF"/>
		<stop  offset="0.85" style="stop-color:#43E3E0"/>
		<stop  offset="1" style="stop-color:#42E8E0"/>
	</linearGradient>
	<path class="st14" d="M217.9,147.2l-59.3,34.1c-2.7,1.6-6,1.6-8.7,0l-59.2-34.2c-0.2-0.1-0.4-0.3-0.5-0.5c-0.4,0.7-0.1,1.5,0.5,1.9
		l59.2,34.2c2.7,1.6,6,1.6,8.7,0l59.3-34.1c0.7-0.4,0.9-1.2,0.5-1.9C218.3,146.9,218.1,147.1,217.9,147.2z"/>
	<polygon class="st0" points="97,157.7 98.5,158.5 98.5,157.6 97,156.7 	"/>
	<polygon class="st0" points="97,164.3 98.5,165.1 98.5,159.4 97,158.6 	"/>
	<polygon class="st0" points="97,167.5 98.5,168.3 98.5,166 97,165.2 	"/>
	<polygon class="st0" points="97,170.7 98.5,171.6 98.5,169.3 97,168.5 	"/>
	<polygon class="st0" points="94.8,159.6 96.3,160.4 96.3,158.2 94.8,157.3 	"/>
	<polygon class="st0" points="94.8,163.9 96.3,164.8 96.3,161.4 94.8,160.6 	"/>
	<polygon class="st0" points="94.8,167.9 96.3,168.8 96.3,165.9 94.8,165.1 	"/>
	<polygon class="st0" points="97,174 98.5,174.9 98.5,172.6 97,171.8 	"/>
	<polygon class="st0" points="94.8,156.4 96.3,157.3 96.3,156.3 94.8,155.5 	"/>
	<polygon class="st0" points="95.9,176.6 98.5,178 98.5,177.1 95.9,175.6 	"/>
	<ellipse class="st15" cx="154.4" cy="147.5" rx="31.5" ry="18.2"/>
	<path class="st16" d="M154.5,132.5l0.1,0.3l0.1-0.2c0.2,0.7,0.2,1.5,0.1,2.2c-0.5,0.9-1,1.8-1.7,2.7c-0.8,1-2,3.2-2.4,3.6
		c-1.2,1.2-2.9,2-4.6,2.2c-2.4,0.3-3-1.1-2.8-1.9c0.7-1.6,1.7-3,2.9-4.3c0.9-1.1,1.8-2.3,2.5-3.6L154.5,132.5z"/>
	<path class="st16" d="M147.4,126c0,0.7,0,1.4-0.1,2.1c-0.2,0.6-3.6,0.8-4.9,1c-1.4,0.3-2.8,0.8-4.1,1.4c-0.7,0.3-5.2,0.8-5.8-0.9
		s2.3-3.1,4.2-3.5s5.1-1.4,5.1-1.4L147.4,126z"/>
	<path class="st17" d="M159.5,95.8c0,3.4-0.5,6.9-1.3,10.2c-0.8,3.3-1.3,6.6-1.3,10c0,0,1.5,6.7,0.2,11.3s-2.4,5.8-2.4,5.8
		c-1.3,1.8-3.7,2.1-5.5,0.9c-0.2-0.1-0.4-0.3-0.6-0.5c1.1-3.7,1.8-7.4,2.2-11.3c-1-2.2-1.8-4.5-2.3-6.9c0,0-0.5,5.2-0.8,7.3
		c0,0,0.3,3.1-0.5,4.3s-4.5,1.6-5.7-0.6s1-1.1,0.3-11.1c0,0-3.4-4.3-3.9-12.1s-0.4-10.9,0-12.4s8-7,8-7l4.3,5.4L159.5,95.8z"/>
	
		<linearGradient id="SVGID_13_" gradientUnits="userSpaceOnUse" x1="417.37" y1="65.3312" x2="422.93" y2="65.3312" gradientTransform="matrix(1 0 0 -1 -274.63 186.8198)">
		<stop  offset="0" style="stop-color:#5761D7"/>
		<stop  offset="7.000000e-02" style="stop-color:#5472D8"/>
		<stop  offset="0.28" style="stop-color:#4E9CDB"/>
		<stop  offset="0.48" style="stop-color:#49BDDD"/>
		<stop  offset="0.67" style="stop-color:#45D5DF"/>
		<stop  offset="0.85" style="stop-color:#43E3E0"/>
		<stop  offset="1" style="stop-color:#42E8E0"/>
	</linearGradient>
	<path class="st18" d="M148.3,117.2c-0.2-0.7-0.4-1.4-0.5-2.2c0,0-0.5,5.2-0.8,7.3c0,0,0.3,3.1-0.5,4.3c-0.5,0.8-2.3,1.2-3.7,0.9
		c1.6,0.8,3.8,0.3,4.4-0.6c0.8-1.2,0.5-4.3,0.5-4.3C147.9,121.3,148.1,118.9,148.3,117.2z"/>
	
		<linearGradient id="SVGID_14_" gradientUnits="userSpaceOnUse" x1="420.2" y1="77.583" x2="434.13" y2="77.583" gradientTransform="matrix(1 0 0 -1 -274.63 186.8198)">
		<stop  offset="0" style="stop-color:#5761D7"/>
		<stop  offset="7.000000e-02" style="stop-color:#5472D8"/>
		<stop  offset="0.28" style="stop-color:#4E9CDB"/>
		<stop  offset="0.48" style="stop-color:#49BDDD"/>
		<stop  offset="0.67" style="stop-color:#45D5DF"/>
		<stop  offset="0.85" style="stop-color:#43E3E0"/>
		<stop  offset="1" style="stop-color:#42E8E0"/>
	</linearGradient>
	<path class="st19" d="M159.5,95.8l-9.3-6.6l-4.3-5.4l-0.3,0.3l3.9,4.9l9.3,6.6c0,3.4-0.5,6.9-1.3,10.2c-0.8,3.3-1.3,6.6-1.3,10
		c0,0,1.5,6.7,0.2,11.3s-2.4,5.8-2.4,5.8c-0.9,1.2-2.5,1.8-4,1.5c2.7,1.3,4.7-1.3,4.7-1.3s1.1-1.3,2.4-5.8s-0.2-11.3-0.2-11.3
		c0-3.4,0.4-6.7,1.3-10C159,102.7,159.5,99.2,159.5,95.8z"/>
	<path class="st16" d="M142.7,104.5c-1.2-1.5-1.9-6.1-1.9-6.1s1.9,3.9,3.3,5c1.4,1.3,2.4,3,2.8,4.9c0.2,1.5,1.6,7,1.6,7
		s-0.5,5.2-0.8,7.3c0,0,0.3,3.1-0.5,4.3c-0.2,0.3-0.5,0.5-0.8,0.6c0-0.1,0.2-6.9,0-9.8S143.9,106,142.7,104.5z"/>
	<path class="st20" d="M170.9,64.3c0,0,3.3,6.4,3.6,6.9s6.4,8.3,7,12.8c0,0,0.5,1.7-1.6,3.3s-12.7,8.3-13.4,8.4s-4.5-1.8-4.7-6
		c0,0,8.3-3.9,10.1-5.8c0,0-3.2-5.4-4.8-7c-0.4-0.6-0.7-1.3-0.8-2c-0.5-3.6,0.9-7.2,3.5-9.6L170.9,64.3z"/>
	<path class="st17" d="M146.5,49.3c0,0-5,1.9-6.8,1.2s-6-1.2-8.9-2.8s-15.6-4.9-17.5-5c0,0,0,0.1,0.3,0.2c1,0.1,1.7,0.8,2,1.7
		c0.2,1.2,0,2.4-0.6,3.4c-0.2,0.1-0.3-0.4-1.5-1c-0.6-0.3-1.3-0.5-2-0.5l-0.5,0.6l-0.3,0.4c0.3,1,1.2,1.7,2.2,1.9
		c1.6,0.1,12.1,4.5,12.7,4.7s9.4,4,11.1,4.6c1,0.4,2,0.8,2.9,1.4c0,0,5.1-3.4,5.3-3.4S146.5,49.3,146.5,49.3z"/>
	<path class="st21" d="M100.9,40.6c0.2,0,2.9,0.9,2.9,0.9s-1,0.5-1.1,1c0,1.1,0.1,2.2,0.3,3.3c0.2,0.2,0.5,0.5,0.8,0.6
		c0.2,0.1,0.6,1,1,0.9c0.2-0.1,0.4-0.3,0.5-0.6c0,0,0.3-0.1,0.4-0.2c0.9,0,1.8,0.2,2.6,0.5c0.8,0.4,1.7,0.6,2.6,0.4
		c0.6-0.2,1.1-0.4,1.6-0.7c0.3,0.1,0.7,0.2,1,0.3c0.4,0.2,1.5,1,1.7,1s2.5-4.6-1.7-5.4c-0.9-0.1-1.7-0.2-2.5-0.5
		c-0.8-0.4-2.9-2-3.7-2c-0.5,0-1.1,0.1-1.6,0.2c0,0-4.8-1.4-5.1-0.9S100.6,40.6,100.9,40.6z M104.3,43.8c0.4,0,0.8-0.2,1-0.6
		c0.2,0.1,0.5,0.1,0.7-0.1c0,0.1,0.6,0.2,0.6,0.2l0.7,0.5c0.4,0.3-0.1,1.1-0.1,1.1c-0.4,0-0.8-0.1-1.1-0.3c-0.3-0.1-0.6-0.2-0.9-0.2
		C104.9,44.2,104.6,44,104.3,43.8L104.3,43.8z"/>
	<path class="st16" d="M137.9,90.8c0.4-1.5,8-7,8-7l2.1,2.7l1.8,7.1l9.7,3l0,0c0,0-0.5,4.8-8.4,4.3s-8.8-6.7-8.8-6.7s-0.9,2-4.8,2.5
		C137.4,94.7,137.5,92.7,137.9,90.8z"/>
	<path class="st22" d="M161.3,53.3l1.3,3.4c0,0,6.4,5.5,8.2,7.5c-1.9,3.9-3.2,8.1-3.8,12.5c-1.3,1.1-2.6,2.2-3.8,3.5
		c-0.9,1.1-3.1,6.2-3.8,7.9s1.3,6.7,1.3,6.7s-2.7,5-7.1,4.9s-7.4-2.8-7.9-7.6s-0.4-5.4-0.4-5.4s-2,5.8-5,5.8s-7.7-5.1-7.7-5.1
		s-3.2-2.9-2.9-4.2s7.5-12.7,7.9-14.5s2-8.6,2-8.6l6.8-10.7l4.2,0.2L161.3,53.3z"/>
	
		<linearGradient id="SVGID_15_" gradientUnits="userSpaceOnUse" x1="420.26" y1="91.2729" x2="435.36" y2="91.2729" gradientTransform="matrix(1 0 0 -1 -274.63 186.8198)">
		<stop  offset="0" style="stop-color:#5761D7"/>
		<stop  offset="7.000000e-02" style="stop-color:#5472D8"/>
		<stop  offset="0.28" style="stop-color:#4E9CDB"/>
		<stop  offset="0.48" style="stop-color:#49BDDD"/>
		<stop  offset="0.67" style="stop-color:#45D5DF"/>
		<stop  offset="0.85" style="stop-color:#43E3E0"/>
		<stop  offset="1" style="stop-color:#42E8E0"/>
	</linearGradient>
	<path class="st23" d="M153.4,98.4c-4.2-0.2-7.1-2.6-7.8-7c0,0.2,0,0.4,0.1,0.6c0.6,4.8,3.5,7.4,7.9,7.6s7.1-4.9,7.1-4.9
		s-0.1-0.4-0.3-0.9C159.8,94.9,157.2,98.6,153.4,98.4z"/>
	<path class="st24" d="M161.3,53.3c0,1.4-0.3,2.7-0.8,4c-0.8,2-3.4,13.4-9.4,17.3l-2.3,1.5v-7.2c0-2.5,0.4-4.9,1.1-7.3
		c0.7-2,1-4.1,1-6.3c0,0,1.7-0.5,1.7-0.4S161.3,53.3,161.3,53.3z"/>
	<path class="st21" d="M153.9,58.6c0,0-1.1,0.4-1.5-0.3c-0.5-0.8-0.8-1.8-0.8-2.7c0,0-2.8,0.1-3.4-1.3c-0.4-0.7-0.3-1.6,0.1-2.3
		c0.1-0.9,0.3-1.7,0.5-2.5V49c0,0-0.6-0.5-0.3-1s1.8-2.1,2-2.4s0-2.3,0.6-3.3c0.5-0.8,1.1-1.6,1.8-2.4c0,0,6-4.7,10.7,0
		s-2.4,13.3-2.4,13.3s-0.6,2.8-2,3.9S153.9,58.6,153.9,58.6z"/>
	<path class="st25" d="M158.4,47.2c0-0.2,0-0.3,0.1-0.5c0.4-1.1,0-2.3-1-2.9c-1.8-1.3-5-2.5-4.9-3.8s5.1-4.6,8.8-2.8
		s7.2,6.1,4.7,10.8s-4.8,5.4-4.8,5.4s-0.8-0.2-0.1-0.9s1.9-2.7,0.9-3.4s-2.8,0.7-3,1c-0.1,0.1-0.2,0.3-0.3,0.4
		c-0.1,0.2-0.4,0.3-0.6,0.2h-0.1c-0.2-0.1-0.4-0.4-0.3-0.6l0.4-1.2c0.1-0.2,0.1-0.4,0.1-0.6L158.4,47.2z"/>
	<path class="st26" d="M154.1,59.9c0.9,0.7,1.7,1.7,2.1,2.8c-0.7-0.7-1.4-1.3-2.2-1.8c0,0-1.6,0.7-1.6,1.2c0,1.7-0.2,3.3-0.5,5
		c-0.3,2.4-0.4,4.8-0.3,7.2l-1,0.7l-0.5-2.4l0.2-5.2l0.9-4.7c0,0,0.2-1.8,0.3-1.9S154.1,59.9,154.1,59.9z"/>
	<path class="st17" d="M154.1,59.9c0,0-1.5-1.6-2.3-1.7c-0.5-0.1-0.9,0.1-1.2,0.5c0,0.1-0.7,2.6-0.7,2.6c-0.9,3.1-1.4,6.4-1.3,9.6
		c0.1,5.2,0.3,5.1,0.3,5.1l1.9-1.2c-0.3-2.7-0.1-5.4,0.5-8c1-4.3,0.1-4.9,0.6-5.4S154.4,60.4,154.1,59.9z"/>
	<path class="st17" d="M163.3,80.2c-0.9,1.1-3.1,6.2-3.8,7.9c-0.1,0.3-0.2,0.7-0.2,1l-0.3,0.2l-1-0.9c0,0,0.9-3.1,2.2-6.9
		s6.8-4.7,6.8-4.7C165.8,77.8,164.5,78.9,163.3,80.2z"/>
	<path class="st21" d="M161.8,89.7c-0.6-0.9-1.3-1.8-2-2.6c0,0,0.1,0.6-0.8,1s-5.5,2.2-5.7,2.4s0,0.5,0.3,0.5
		c-0.4,0.2-0.9,0.3-1.4,0.3c-0.4,0-0.9,0.5-0.6,0.9s0.5,0.4,0.5,0.4s-0.1,0.5,0.2,0.6c0.3,0.1,0.7,0.1,1,0.1c0,0-0.1,0.5,0.2,0.7
		c0.7,0.2,1.5,0.3,2.3,0.4c0,0,1.5-0.1,1.9-0.2c1,0.2,2.1,0.3,3.1,0.3c1.3-0.3,2.5-0.7,3.8-1.2C164.8,93.3,161.8,89.7,161.8,89.7z"
		/>
	<path class="st17" d="M162.9,57.8l-0.2,3.1l-1.6,0.5l1.1,0.9c0,0-4.5,10.2-10.2,13.4c0,0,5.5-1.9,10.6-13.3l-0.7-0.8l1.1-0.5
		L162.9,57.8z"/>
	<path class="st17" d="M148.4,57.5c0,0-2,10.4-0.3,18.2c0,0-2.1-3.8-0.2-18.2H148.4z"/>
	<path class="st27" d="M102.7,42.3c0.3-0.3,0.6-0.6,1-0.8c0,0,2.2,0.9,2.5,1C106.2,42.6,104,42.4,102.7,42.3z"/>
	<path class="st27" d="M115.1,48.2c-0.1,0-0.4-0.3-0.8-0.5l0,0c1.4-1.9-0.1-4.7-0.1-4.7C117.3,44.2,115.2,48.2,115.1,48.2z"/>
	<path class="st27" d="M164.5,93.4c-0.9,0.4-1.9,0.7-2.8,1c-0.3-1.2-0.5-2.5-0.6-3.7c0.2-0.9,0.5-1.2,0.5-1.2l0.1,0.1
		C161.8,89.7,164.8,93.3,164.5,93.4z"/>
	<path class="st20" d="M161.8,89.5c-0.3,1,0,2.1,0.6,2.9c1.1,1.3,1.2,1.4,1.2,1.4h1.3c0.2-0.7,0.4-1.3,0.5-2
		C165.4,91.8,161.8,89.5,161.8,89.5z"/>
	<path class="st17" d="M150.1,60.5L150.1,60.5c0,0-1.2,7.1-0.9,9.7c0.2,1.8,0.2,3.6,0.2,5.4L149,76l-0.1,0.1c0,0-0.1,0-0.3-5.1
		c-0.1-3.2,0.4-6.5,1.3-9.6L150.1,60.5z"/>
	<path class="st16" d="M149.7,134.3c-0.4-0.2-0.8-0.5-1.1-0.8c1.1-3.7,1.8-7.4,2.2-11.3c-1-2.2-1.8-4.5-2.3-6.9
		c0.2,0.6,2.1,4.2,3,7.8S149.7,134.3,149.7,134.3z"/>
	<path class="st27" d="M158.5,52.1L158.5,52.1z"/>
	<path class="st27" d="M158.5,52.1c-0.3,1.4-0.8,2.7-1.6,3.9c-1.1,1.2-1.9,2.4-1.9,2.4c-0.6,0.1-1.1,0.1-1.1,0.1s-1.1,0.4-1.5-0.3
		c-0.5-0.8-0.8-1.8-0.8-2.7c0,0,3.8-0.4,5.3-1.4C157.7,53.7,158.2,53,158.5,52.1z"/>
	<path class="st28" d="M159.9,87.1c-0.1,0.2-0.2,0.3-0.2,0.5l-0.1-0.3c0,0,0.2-0.4,0.2-0.4S159.9,87.1,159.9,87.1z"/>
	<path class="st17" d="M148.8,76.1c0,0-2.6,8.5-3.5,10.5l0,2C145.4,88.6,148.7,78.1,148.8,76.1z"/>
	<path class="st17" d="M146.3,79.1c-0.2,0.4,0,1,0.5,1.1c0.4,0.2,1,0,1.1-0.5c0,0,0-0.1,0-0.1c0.2-0.4,0-1-0.5-1.1
		c-0.4-0.2-1,0-1.1,0.5C146.3,79,146.3,79.1,146.3,79.1z"/>
	<path class="st17" d="M144.9,82.8c-0.1,0.5,0.2,0.9,0.7,1c0.5,0.1,0.9-0.2,1-0.7c0.1-0.4-0.2-0.9-0.6-1
		C145.6,82,145.1,82.3,144.9,82.8z"/>
	<path class="st29" d="M158.3,48.8c0.1-0.2,0.1-0.4,0.1-0.6v-1c0-0.2,0-0.3,0.1-0.5c0.1-0.2,0.1-0.4,0.1-0.6c0,0,4.1,3,6.8,3.1
		c-2.2,3.5-4,4.1-4,4.1s-0.8-0.2-0.1-0.9s1.9-2.7,0.9-3.4s-2.8,0.7-3,1c-0.1,0.1-0.2,0.3-0.3,0.4c-0.1,0.2-0.4,0.3-0.6,0.2h-0.1
		c-0.2-0.1-0.4-0.4-0.3-0.6L158.3,48.8z"/>
	<path class="st16" d="M166.1,159.5c-1.2,0.3-2.4,0.5-3.7,0.5c-1.8,0.1-6.7,1-6.6,2.9s2.7,4.5,5.9,4.9s7.4-0.5,9.5-0.5
		c1.7,0,3-1.4,2.9-3.1c0-0.4-0.1-0.7-0.2-1.1C173.1,161.2,166.1,159.5,166.1,159.5z"/>
	<path class="st16" d="M176.9,154.6c0,0,0.7,1.1,0.4,1.8s-1.2,2.4-4.2,0.7s-8.6-4-8.6-4s-3.2-1.7-3.1-3.8s3.1-1.7,3.1-1.7
		L176.9,154.6z"/>
	<path class="st17" d="M157.8,125.8c0,0,1.3,13.2,3.9,18.2s3.4,14.4,4,16.2s2.3,4.4,5.1,4.9s3.2-1.3,3.1-2.5s-0.9-2.9-0.9-4.1
		c0-0.8,0.1-1.6,0.3-2.3c0,0,3.1,0.9,3.6-1.5c-0.1-0.3-0.2-0.7-0.3-1.1c0-0.4,0.3-9.2,0.3-10.3c-0.1-3.3-0.6-6.5-1.4-9.7
		c-0.9-2.8-0.6-8.8-0.6-8.8l-9-1.3L157.8,125.8z"/>
	
		<linearGradient id="SVGID_16_" gradientUnits="userSpaceOnUse" x1="409.0356" y1="-26.1921" x2="418.1973" y2="-26.1921" gradientTransform="matrix(1 -9.000000e-02 -9.000000e-02 -1 -240.8899 155.7598)">
		<stop  offset="0" style="stop-color:#5761D7"/>
		<stop  offset="7.000000e-02" style="stop-color:#5472D8"/>
		<stop  offset="0.28" style="stop-color:#4E9CDB"/>
		<stop  offset="0.48" style="stop-color:#49BDDD"/>
		<stop  offset="0.67" style="stop-color:#45D5DF"/>
		<stop  offset="0.85" style="stop-color:#43E3E0"/>
		<stop  offset="1" style="stop-color:#42E8E0"/>
	</linearGradient>
	<path class="st30" d="M175.6,133.6c-0.9-2.8-0.6-8.8-0.6-8.8l-0.8-0.1c0,0.8-0.2,6.1,0.6,8.7c0.8,3.2,1.3,6.4,1.4,9.7
		c-0.1,1.1-0.4,9.9-0.4,10.3c0.1,0.4,0.2,0.7,0.3,1.1c-0.5,2.4-3.6,1.5-3.6,1.5c-0.2,0.8-0.3,1.5-0.3,2.3c0,1.2,0.8,3,0.9,4.1
		s-0.3,3-3.1,2.5l-0.3-0.1c0.3,0.2,0.7,0.3,1.1,0.3c2.8,0.5,3.2-1.3,3.1-2.5s-0.9-2.9-0.9-4.1c0-0.8,0.1-1.6,0.3-2.5
		c0,0,3.1,1,3.6-1.4c-0.1-0.3-0.2-0.7-0.3-1.1c0-0.4,0.3-9.2,0.3-10.3C176.9,140,176.4,136.8,175.6,133.6z"/>
	<path class="st16" d="M172.4,125.7c-0.1,1.3-0.4,2.6-0.9,3.8c0,3.5-0.2,7.1-0.7,10.6c0,0,1.2,7.1,1.9,9.4c0.5,2.2,0.7,4.4,0.6,6.7
		c0.3,0.1,0.6,0.1,0.9,0.2c0.5,0,0.6-8.7-0.2-10.3s-1.4-8.3-1.1-10.4s0.2-8,0.6-9c0.2-0.6,0-1.2-0.5-1.6L172.4,125.7z"/>
	<path class="st16" d="M164.8,78.1c-1.6,1.2-2.5,3.1-2.5,5.1l1.9-0.4C164.3,82.8,163.7,79.2,164.8,78.1z"/>
	<path class="st16" d="M165.8,128.6c6,0.2,9.2-2.4,9.2-2.4c0-0.8,0-1.4,0-1.4l-9-1.3l-8.2,2.3c0,0,0.3,2.6,0.8,5.9
		c1.5,0.2,2.9-3.4,2.9-3.4l4.1,0.3C165.5,128.6,159.9,128.4,165.8,128.6z"/>
	<path class="st22" d="M159,126c0,0,12.9,5.3,19.2-4.7c0.2-0.3,0.3-0.7,0.2-1l0-2.3c0-0.3,0-0.6,0.1-0.9l0,0
		c0.2-0.6,0.2-1.2,0.1-1.9c-0.5-2.6-1.8-9.7-2.1-11.7c-0.4-2.4,0.9-12,3-16.2S176.2,74,176.2,74c-0.9-1.3-2.5-1.9-3.9-1.4
		c0,0,2.5,1.7,1.1,3.6s-5.5,3.3-5.5,3.3s-7.6,3.9-10.1,8.7c-0.6,1.8-0.9,3.7-1,5.6c-0.1,3.2,0.3,10.8,0.1,11.9s-0.5,8.3-0.5,8.7
		S159,126,159,126z"/>
	
		<linearGradient id="SVGID_17_" gradientUnits="userSpaceOnUse" x1="419.6156" y1="44.9203" x2="420.9056" y2="44.9203" gradientTransform="matrix(1 -9.000000e-02 -9.000000e-02 -1 -240.8899 155.7598)">
		<stop  offset="0" style="stop-color:#5761D7"/>
		<stop  offset="7.000000e-02" style="stop-color:#5472D8"/>
		<stop  offset="0.28" style="stop-color:#4E9CDB"/>
		<stop  offset="0.48" style="stop-color:#49BDDD"/>
		<stop  offset="0.67" style="stop-color:#45D5DF"/>
		<stop  offset="0.85" style="stop-color:#43E3E0"/>
		<stop  offset="1" style="stop-color:#42E8E0"/>
	</linearGradient>
	<path class="st31" d="M173.5,73.9c0.2-0.5,0.2-1,0-1.5c-0.4,0-0.8,0-1.2,0.1C172.8,73,173.2,73.4,173.5,73.9z"/>
	<path class="st17" d="M162.9,127.1c0,0,7.6-20.6,7.3-28c-0.4-7.3-11.1,14.7-11.1,14.7l0,12.2C160.3,126.5,161.6,126.8,162.9,127.1z
		"/>
	
		<linearGradient id="SVGID_18_" gradientUnits="userSpaceOnUse" x1="400.2356" y1="-0.8054" x2="422.2156" y2="-0.8054" gradientTransform="matrix(1 -9.000000e-02 -9.000000e-02 -1 -240.8899 155.7598)">
		<stop  offset="0" style="stop-color:#5761D7"/>
		<stop  offset="7.000000e-02" style="stop-color:#5472D8"/>
		<stop  offset="0.28" style="stop-color:#4E9CDB"/>
		<stop  offset="0.48" style="stop-color:#49BDDD"/>
		<stop  offset="0.67" style="stop-color:#45D5DF"/>
		<stop  offset="0.85" style="stop-color:#43E3E0"/>
		<stop  offset="1" style="stop-color:#42E8E0"/>
	</linearGradient>
	<path class="st32" d="M178.3,115.1c-0.1,0.3-0.1,0.6-0.1,0.9l0.1,2.3c0,0.4-0.1,0.7-0.3,1c-6.2,9.9-19.1,4.7-19.1,4.7
		s-1.8-8.1-2.3-10.7c0,0.6,0,1.1,0,1.2c0,0.3,2.5,11.6,2.5,11.6s12.9,5.3,19.2-4.7c0.2-0.3,0.3-0.7,0.2-1l-0.1-2.4
		c0-0.3,0-0.6,0.1-0.9c0.2-0.6,0.2-1.2,0.1-1.9c0-0.3-0.1-0.6-0.2-1C178.4,114.5,178.4,114.8,178.3,115.1z"/>
	
		<linearGradient id="SVGID_19_" gradientUnits="userSpaceOnUse" x1="421.0756" y1="25.1033" x2="426.2756" y2="25.1033" gradientTransform="matrix(1 -9.000000e-02 -9.000000e-02 -1 -240.8899 155.7598)">
		<stop  offset="0" style="stop-color:#5761D7"/>
		<stop  offset="7.000000e-02" style="stop-color:#5472D8"/>
		<stop  offset="0.28" style="stop-color:#4E9CDB"/>
		<stop  offset="0.48" style="stop-color:#49BDDD"/>
		<stop  offset="0.67" style="stop-color:#45D5DF"/>
		<stop  offset="0.85" style="stop-color:#43E3E0"/>
		<stop  offset="1" style="stop-color:#42E8E0"/>
	</linearGradient>
	<path class="st33" d="M179.4,85.5c-2.1,4.1-3.4,13.7-3,16.1c0,0.2,0.1,0.5,0.1,0.8c0-3.4,1.2-11.4,3.1-15.1
		c0.6-1.4,0.6-2.9,0.3-4.4C179.9,83.9,179.8,84.8,179.4,85.5z"/>
	<path class="st20" d="M158.8,102.8c0.3-1.7,0.4-3.3,0.5-5c0-2.9,0.9-7.8,6.1-6.9c7.5,1.2,4.3,11.7,3.5,13.5s-4.1,10.1-4.3,10.6
		s-5.3,10.8-7.2,13.3c-0.1,0.2-0.4,0.3-0.6,0.1c0,0,0,0,0,0c-0.7-0.6-2.4-2.2-2.6-3.1c-0.3-1.2,0.8-5.7,0.8-5.7s2.9-11.2,3.2-11.7
		S158.4,105.5,158.8,102.8z"/>
	<path class="st21" d="M164.9,78.3c-0.4-0.8-1.1-1.4-2-1.5c-1.4-0.1-2.1-0.5-2.3-1c-0.1-0.6-0.3-1.3-0.5-1.9
		c-0.3-0.9-0.5-1.7-0.6-2.6c0-0.1-1-0.4-1.1-0.8s0.5-2.1,0.4-2.2c-0.3-0.6-0.5-1.2-0.5-1.9c0.1-1,0.3-1.9,0.6-2.9
		c0.4-0.9,3.3-6.8,10.9-3.8s1.8,9.4,2.6,13.6c0,0,0.7,0.9-0.6,2.4S167,77.5,164.9,78.3z"/>
	<path class="st27" d="M171.9,75.7c1.3-1.5,0.6-2.4,0.6-2.4c-0.1-0.6-0.1-1.2,0-1.9l-3,0.6c0,0-4.4-3.9-4.1-1.8s-0.8,2.5-0.8,2.5
		l0.9,1.2c0.2,0.3,0.1,0.6-0.1,1c-1.3,2.2-4.3,1.5-4.3,1.5c0.6,0.3,1.2,0.5,1.9,0.5c0.9,0.1,1.6,0.7,2,1.5
		C167,77.5,170.6,77.2,171.9,75.7z"/>
	<path class="st25" d="M158.6,61.3c0,0-0.5,1.6,0.3,2.2l1.6,1.3v2c0,0.3,0.1,0.6,0.2,0.8l1.1,1.7c0.2,0.3,0.3,0.7,0.3,1.1v0.8
		c0,0.2,0.2,0.4,0.4,0.5h0.3c0.3,0,0.5-0.2,0.5-0.4l0.1-1.1c0,0,0.6-0.9,1.8,0.2l1.1,0.5c0.3,0.1,0.6,0.4,0.7,0.7
		c0.3,0.9,1,2.6,1.5,2.8c0.7,0.4,3.3-1,3.6-1.6s1.2-4.6,1.8-6.5s0.2-6.6-5.4-7.8S159.4,59.6,158.6,61.3z"/>
	<path class="st29" d="M172.3,72.6c0.4-0.6,1.2-4.6,1.8-6.5c-1.5,1-3.2,1.6-5,1.9c-2.8,0.4-8.4-2.8-8.4-2.8v1.4
		c0,0.3,0.1,0.6,0.2,0.8l1.1,1.7c0.2,0.3,0.3,0.7,0.3,1.1v0.8c0,0.2,0.2,0.4,0.4,0.5h0.3c0.3,0,0.5-0.2,0.5-0.4l0.1-1.1
		c0,0,0.6-0.9,1.8,0.2l1.6,0.7c0,0,1,3,1.7,3.3S171.9,73.2,172.3,72.6z"/>
	<path class="st24" d="M172.4,72.8c0,0,2.2,1.4,1.1,3.3s-9,5.4-9.4,5.9c0,0-0.3-2.9,0.7-3.9c0,0,6.1-1.2,7-2.7
		C172.3,74.6,172.5,73.7,172.4,72.8z"/>
	<path class="st26" d="M172.4,72.8c0.2,0.9,0,1.8-0.6,2.6c-0.7,1.2-4.4,2.1-6.1,2.5l0,0c0.7,0.6,1.3,1.4,1.7,2.2
		c2.4-1.3,5.4-2.9,6-4C174.6,74.2,172.4,72.8,172.4,72.8z"/>
	<path class="st17" d="M173.9,78.9c0,0-3.5,2-5.3,2.9S165,84,165,84l-0.7-0.7l-0.8,1.8c-1.4,0.9-2.8,1.9-4,3c-1,1.1-1.8,2.3-2.4,3.6
		c0,0,3.4-4.4,6.1-5.8l0.7-0.4l0.4-1.4l0.7,0.7C165,84.8,172.8,80.2,173.9,78.9z"/>
	
		<linearGradient id="SVGID_20_" gradientUnits="userSpaceOnUse" x1="388.6256" y1="-21.2318" x2="406.4056" y2="-21.2318" gradientTransform="matrix(1 -9.000000e-02 -9.000000e-02 -1 -240.8899 155.7598)">
		<stop  offset="0" style="stop-color:#5761D7"/>
		<stop  offset="7.000000e-02" style="stop-color:#5472D8"/>
		<stop  offset="0.28" style="stop-color:#4E9CDB"/>
		<stop  offset="0.48" style="stop-color:#49BDDD"/>
		<stop  offset="0.67" style="stop-color:#45D5DF"/>
		<stop  offset="0.85" style="stop-color:#43E3E0"/>
		<stop  offset="1" style="stop-color:#42E8E0"/>
	</linearGradient>
	<path class="st34" d="M164.8,139L164.8,139c-0.1-0.3-0.3-0.6-0.5-0.8L149.7,126c-0.4-0.3-0.8-0.1-0.8,0.5l-1.7,14.2
		c-0.1,0.7,0.1,1.3,0.6,1.8l12.2,10.6l-0.4,4.1l3.6-1.7l0,0c0.2-0.2,0.3-0.4,0.3-0.7l1.4-14.9C164.9,139.7,164.9,139.3,164.8,139z"
		/>
	<path class="st22" d="M145.8,127.4l3.4-1.5l0.1-0.1c0.2,0,0.3,0,0.4,0.1l14.6,12.2c0.2,0.2,0.4,0.5,0.5,0.8l-0.5,0.3l0,0l-3,1.4
		l-12.8-10.9l0,0L145.8,127.4z"/>
	<path class="st17" d="M144.2,144.2l14.9,13c0.4,0.4,0.8,0.1,0.9-0.6l1.5-15c0.1-0.7-0.2-1.3-0.6-1.8l-14.5-12.3
		c-0.4-0.3-0.8-0.1-0.8,0.6l-1.8,14.3C143.5,143,143.7,143.7,144.2,144.2z"/>
	<path class="st16" d="M161.8,155.7l1.4-14.9c0.1-0.7-0.2-1.3-0.6-1.8L148,126.7c-0.1-0.1-0.2-0.1-0.3-0.1c0.2-0.1,0.3,0,0.5,0.1
		l14.5,12.2c0.4,0.5,0.7,1.1,0.6,1.8l-1.4,14.9c0,0.5-0.2,0.8-0.5,0.8C161.6,156.4,161.7,156.1,161.8,155.7z"/>
	<path class="st16" d="M156.4,133.7l0.8-0.4c0.1-0.1,0.3-0.1,0.5-0.1h0.1c0.1,0,0.1,0.1,0.1,0.2v0.1l-2.1,1.1v-0.1
		c0-0.1,0.1-0.3,0.2-0.4l0.1-0.1C156.1,134,156.2,133.8,156.4,133.7z"/>
	<polygon class="st16" points="156.7,135.6 155.7,134.7 157.8,133.3 158.8,134.2 	"/>
	
		<linearGradient id="SVGID_21_" gradientUnits="userSpaceOnUse" x1="398.6056" y1="-14.8281" x2="400.8656" y2="-14.8281" gradientTransform="matrix(1 -9.000000e-02 -9.000000e-02 -1 -240.8899 155.7598)">
		<stop  offset="0" style="stop-color:#5761D7"/>
		<stop  offset="7.000000e-02" style="stop-color:#5472D8"/>
		<stop  offset="0.28" style="stop-color:#4E9CDB"/>
		<stop  offset="0.48" style="stop-color:#49BDDD"/>
		<stop  offset="0.67" style="stop-color:#45D5DF"/>
		<stop  offset="0.85" style="stop-color:#43E3E0"/>
		<stop  offset="1" style="stop-color:#42E8E0"/>
	</linearGradient>
	<path class="st35" d="M157.5,134.6l0.8-0.4c0.1-0.1,0.3-0.1,0.5-0.1h0.1c0.1,0,0.1,0.1,0.1,0.2v0.1l-2.1,1.1v-0.1
		c0-0.1,0.1-0.3,0.2-0.4l0.1-0.1C157.1,134.8,157.3,134.7,157.5,134.6z"/>
	<polygon class="st36" points="157.9,135 158,134.3 157.9,134.4 157.9,135 	"/>
	<polygon class="st36" points="158,134.3 156.9,133.5 156.9,133.5 157.9,134.4 	"/>
	<path class="st16" d="M151.8,129.8l0.8-0.4c0.1-0.1,0.3-0.1,0.5-0.1h0.1c0.1,0,0.1,0.1,0.1,0.2v0.1l-2.1,1.1v-0.1
		c0-0.1,0.1-0.3,0.2-0.4l0.1-0.1C151.4,130.1,151.6,129.9,151.8,129.8z"/>
	<polygon class="st16" points="152.1,131.7 151.1,130.8 153.2,129.4 154.2,130.3 	"/>
	
		<linearGradient id="SVGID_22_" gradientUnits="userSpaceOnUse" x1="394.3256" y1="-10.5451" x2="396.5856" y2="-10.5451" gradientTransform="matrix(1 -9.000000e-02 -9.000000e-02 -1 -240.8899 155.7598)">
		<stop  offset="0" style="stop-color:#5761D7"/>
		<stop  offset="7.000000e-02" style="stop-color:#5472D8"/>
		<stop  offset="0.28" style="stop-color:#4E9CDB"/>
		<stop  offset="0.48" style="stop-color:#49BDDD"/>
		<stop  offset="0.67" style="stop-color:#45D5DF"/>
		<stop  offset="0.85" style="stop-color:#43E3E0"/>
		<stop  offset="1" style="stop-color:#42E8E0"/>
	</linearGradient>
	<path class="st37" d="M152.8,130.7l0.8-0.4c0.1-0.1,0.3-0.1,0.5-0.1h0.1c0.1,0,0.1,0.1,0.1,0.2v0.1l-2.1,1.1v-0.1
		c0-0.1,0.1-0.3,0.2-0.4l0.1-0.1C152.5,130.9,152.6,130.8,152.8,130.7z"/>
	<polygon class="st36" points="153.3,131.1 153.3,130.4 153.3,130.5 153.2,131.1 	"/>
	<polygon class="st36" points="153.3,130.4 152.3,129.6 152.3,129.6 153.3,130.5 	"/>
	<path class="st22" d="M158.4,131.4l-0.3,2.6l-0.7-0.6l0.3-2.6c0-0.4-0.1-0.8-0.4-1.1l-3-2.5c-0.3-0.2-0.5-0.1-0.5,0.3l-0.3,2.6
		l-0.7-0.6l0.3-2.6c0.1-0.8,0.6-1.1,1.2-0.6l3.2,2.6C158.1,129.6,158.4,130.5,158.4,131.4z"/>
	<path class="st22" d="M153.3,127.1l1.2-0.1l3.5,3.3l0.1,2l-0.1,1.7l-0.8,0.4v-2.1v-1.4l-0.7-1c0,0-1.3-1.1-1.3-1.1
		S153.3,127.1,153.3,127.1z"/>
	<polygon class="st22" points="152.7,130.5 153.5,130.1 153.7,128.2 152.9,128.3 152.7,128.3 	"/>
	<path class="st22" d="M152.7,126.5l0.8-0.4l-0.2,0.5l-0.3,0.1L152.7,126.5z"/>
	<path class="st16" d="M157.6,131.8l-0.3,2.7l-0.7-0.6l0.3-2.6c0-0.4-0.1-0.8-0.4-1.1l-3-2.5c-0.3-0.2-0.5-0.1-0.5,0.3l-0.3,2.6
		l-0.7-0.6l0.3-2.6c0.1-0.8,0.6-1.1,1.2-0.6l3.2,2.6C157.3,130,157.7,130.8,157.6,131.8z"/>
	<path class="st21" d="M154.3,125.1c-0.2,1.1-0.3,2.2-0.4,3.3c0.4,0.9,1.2,1.7,2.1,2.1c0.8,0.2,0.5-0.7,0.6-1.2
		c0.1-0.6,0.1-1.2,0.1-1.8L154.3,125.1z"/>
	<path class="st27" d="M156.8,127.4l-2.5-2.4c0,0-0.1,0.5-0.2,1.2c0.6,1.2,1.5,2.1,2.6,2.7C156.8,128.4,156.8,127.9,156.8,127.4z"/>
	<path class="st20" d="M154.1,125.3c0,0,0.9,2.8,3.1,3.1l-0.8-3.1l-2-0.5C154.4,124.9,154.2,125.1,154.1,125.3z"/>
	
		<linearGradient id="SVGID_23_" gradientUnits="userSpaceOnUse" x1="398.6556" y1="8.9445" x2="415.487" y2="8.9445" gradientTransform="matrix(1 -9.000000e-02 -9.000000e-02 -1 -240.8899 155.7598)">
		<stop  offset="0" style="stop-color:#5761D7"/>
		<stop  offset="7.000000e-02" style="stop-color:#5472D8"/>
		<stop  offset="0.28" style="stop-color:#4E9CDB"/>
		<stop  offset="0.48" style="stop-color:#49BDDD"/>
		<stop  offset="0.67" style="stop-color:#45D5DF"/>
		<stop  offset="0.85" style="stop-color:#43E3E0"/>
		<stop  offset="1" style="stop-color:#42E8E0"/>
	</linearGradient>
	<path class="st38" d="M168.7,92.4c2.1,6.3-3.1,16.1-3.9,19s-8.7,16.3-8.7,16.3l0,0l-0.1,0.1c0.2,0.1,0.3,0.2,0.5,0.4
		c0.1,0.1,0.2,0.1,0.4,0.1l0,0c0.2,0,0.4,0,0.5-0.2c1.9-2.5,7-12.9,7.2-13.3s3.5-8.8,4.3-10.6C169.5,102.8,171.7,95.8,168.7,92.4z"
		/>
	<path class="st39" d="M84.3,153.3c-0.5,0-1-0.1-1.5-0.4l-33.1-19.1c-0.4-0.2-0.6-0.6-0.7-1c0.1-0.5,0.4-1,0.9-1.2l32.6-18.8
		c1-0.6,2.3-0.6,3.3-0.1l33.1,19.1c0.4,0.2,0.6,0.6,0.7,1c-0.1,0.5-0.4,1-0.9,1.2l-32.6,18.8C85.6,153.1,84.9,153.3,84.3,153.3z
		 M83.1,152.5c0.9,0.4,2,0.4,2.8-0.1l32.6-18.9c0.3-0.1,0.6-0.4,0.6-0.8c0-0.2-0.2-0.5-0.4-0.6L85.7,113c-0.9-0.4-2-0.3-2.8,0.1
		L50.2,132c-0.3,0.1-0.6,0.4-0.6,0.8c0,0.2,0.2,0.5,0.4,0.6L83.1,152.5z"/>
	
		<linearGradient id="SVGID_24_" gradientUnits="userSpaceOnUse" x1="31.78" y1="164.9348" x2="121.84" y2="164.9348" gradientTransform="matrix(1 0 0 -1 0 295.8898)">
		<stop  offset="0" style="stop-color:#5761D7"/>
		<stop  offset="0.16" style="stop-color:#5E67DA"/>
		<stop  offset="0.41" style="stop-color:#727AE2"/>
		<stop  offset="0.69" style="stop-color:#9297EE"/>
		<stop  offset="1" style="stop-color:#BCBEFF"/>
	</linearGradient>
	<polygon class="st40" points="119.4,118.8 119.4,122.8 84.3,143.1 49.2,122.8 49.2,118.8 	"/>
	<polygon class="st41" points="84.3,139.1 49.2,118.8 84.3,98.5 119.4,118.8 	"/>
	<polygon class="st42" points="84.3,138.6 49.6,118.5 49.2,118.8 84.3,139.1 119.4,118.8 119,118.5 	"/>
	<polygon class="st43" points="84.3,134.4 57.3,118.8 84.3,103.2 111.3,118.8 	"/>
	
		<linearGradient id="SVGID_25_" gradientUnits="userSpaceOnUse" x1="57.27" y1="177.0998" x2="111.32" y2="177.0998" gradientTransform="matrix(1 0 0 -1 0 295.8898)">
		<stop  offset="0" style="stop-color:#42E8E0"/>
		<stop  offset="0.15" style="stop-color:#43E3E0"/>
		<stop  offset="0.33" style="stop-color:#45D5DF"/>
		<stop  offset="0.52" style="stop-color:#49BDDD"/>
		<stop  offset="0.72" style="stop-color:#4E9CDB"/>
		<stop  offset="0.93" style="stop-color:#5472D8"/>
		<stop  offset="1" style="stop-color:#5761D7"/>
	</linearGradient>
	<polygon class="st44" points="84.3,134.4 57.3,118.8 84.3,103.2 111.3,118.8 	"/>
	
		<linearGradient id="SVGID_26_" gradientUnits="userSpaceOnUse" x1="84.29" y1="186.8698" x2="111.32" y2="186.8698" gradientTransform="matrix(1 0 0 -1 0 295.8898)">
		<stop  offset="0" style="stop-color:#42E8E0"/>
		<stop  offset="0.15" style="stop-color:#43E3E0"/>
		<stop  offset="0.33" style="stop-color:#45D5DF"/>
		<stop  offset="0.52" style="stop-color:#49BDDD"/>
		<stop  offset="0.72" style="stop-color:#4E9CDB"/>
		<stop  offset="0.93" style="stop-color:#5472D8"/>
		<stop  offset="1" style="stop-color:#5761D7"/>
	</linearGradient>
	<polygon class="st45" points="84.3,99.2 111.3,114.9 111.3,118.8 84.3,103.2 	"/>
	
		<linearGradient id="SVGID_27_" gradientUnits="userSpaceOnUse" x1="57.27" y1="186.8698" x2="84.3" y2="186.8698" gradientTransform="matrix(1 0 0 -1 0 295.8898)">
		<stop  offset="0" style="stop-color:#42E8E0"/>
		<stop  offset="0.15" style="stop-color:#43E3E0"/>
		<stop  offset="0.33" style="stop-color:#45D5DF"/>
		<stop  offset="0.52" style="stop-color:#49BDDD"/>
		<stop  offset="0.72" style="stop-color:#4E9CDB"/>
		<stop  offset="0.93" style="stop-color:#5472D8"/>
		<stop  offset="1" style="stop-color:#5761D7"/>
	</linearGradient>
	<polygon class="st46" points="84.3,103.2 57.3,118.8 57.3,114.8 84.3,99.2 	"/>
	
		<linearGradient id="SVGID_28_" gradientUnits="userSpaceOnUse" x1="57.27" y1="181.0348" x2="111.32" y2="181.0348" gradientTransform="matrix(1 0 0 -1 0 295.8898)">
		<stop  offset="0" style="stop-color:#42E8E0"/>
		<stop  offset="0.15" style="stop-color:#43E3E0"/>
		<stop  offset="0.33" style="stop-color:#45D5DF"/>
		<stop  offset="0.52" style="stop-color:#49BDDD"/>
		<stop  offset="0.72" style="stop-color:#4E9CDB"/>
		<stop  offset="0.93" style="stop-color:#5472D8"/>
		<stop  offset="1" style="stop-color:#5761D7"/>
	</linearGradient>
	<polygon class="st47" points="84.3,130.5 57.3,114.8 84.3,99.2 111.3,114.9 	"/>
	<polygon class="st1" points="84.3,121.1 73.5,114.8 84.3,108.6 95.1,114.9 	"/>
	<polygon class="st1" points="84.3,109.2 94.6,115.1 95.1,114.9 84.3,108.6 73.5,114.8 74,115.1 	"/>
	
		<linearGradient id="SVGID_29_" gradientUnits="userSpaceOnUse" x1="84.3" y1="171.2648" x2="111.32" y2="171.2648" gradientTransform="matrix(1 0 0 -1 0 295.8898)">
		<stop  offset="0" style="stop-color:#42E8E0"/>
		<stop  offset="0.15" style="stop-color:#43E3E0"/>
		<stop  offset="0.33" style="stop-color:#45D5DF"/>
		<stop  offset="0.52" style="stop-color:#49BDDD"/>
		<stop  offset="0.72" style="stop-color:#4E9CDB"/>
		<stop  offset="0.93" style="stop-color:#5472D8"/>
		<stop  offset="1" style="stop-color:#5761D7"/>
	</linearGradient>
	<polygon class="st48" points="84.3,130.5 84.3,134.4 111.3,118.8 111.3,114.9 	"/>
	
		<linearGradient id="SVGID_30_" gradientUnits="userSpaceOnUse" x1="57.27" y1="171.2698" x2="84.3" y2="171.2698" gradientTransform="matrix(1 0 0 -1 0 295.8898)">
		<stop  offset="0" style="stop-color:#42E8E0"/>
		<stop  offset="0.15" style="stop-color:#43E3E0"/>
		<stop  offset="0.33" style="stop-color:#45D5DF"/>
		<stop  offset="0.52" style="stop-color:#49BDDD"/>
		<stop  offset="0.72" style="stop-color:#4E9CDB"/>
		<stop  offset="0.93" style="stop-color:#5472D8"/>
		<stop  offset="1" style="stop-color:#5761D7"/>
	</linearGradient>
	<polygon class="st49" points="57.3,114.8 57.3,118.8 84.3,134.4 84.3,130.5 	"/>
	<polygon class="st50" points="84.3,130 57.6,114.6 57.3,114.8 84.3,130.5 111.3,114.9 110.9,114.6 	"/>
	<path class="st39" d="M84.3,245.4c-0.5,0-1-0.1-1.5-0.3L49.7,226c-0.4-0.2-0.6-0.6-0.7-1c0.1-0.5,0.4-1,0.9-1.2l32.6-18.8
		c1-0.6,2.3-0.6,3.3-0.1l33.1,19.1c0.4,0.2,0.6,0.6,0.7,1c-0.1,0.5-0.4,1-0.9,1.2l-32.6,18.8C85.6,245.2,84.9,245.4,84.3,245.4z
		 M83.1,244.6c0.9,0.4,2,0.3,2.8-0.1l32.6-18.9c0.4-0.2,0.6-0.5,0.6-0.8c0-0.2-0.2-0.5-0.4-0.5l-33.1-19.1c-0.9-0.4-2-0.4-2.8,0.1
		l-32.6,18.9c-0.3,0.1-0.6,0.4-0.6,0.8c0,0.2,0.2,0.5,0.4,0.5L83.1,244.6z"/>
	
		<linearGradient id="SVGID_31_" gradientUnits="userSpaceOnUse" x1="31.78" y1="72.7648" x2="121.84" y2="72.7648" gradientTransform="matrix(1 0 0 -1 0 295.8898)">
		<stop  offset="0" style="stop-color:#5761D7"/>
		<stop  offset="0.16" style="stop-color:#5E67DA"/>
		<stop  offset="0.41" style="stop-color:#727AE2"/>
		<stop  offset="0.69" style="stop-color:#9297EE"/>
		<stop  offset="1" style="stop-color:#BCBEFF"/>
	</linearGradient>
	<polygon class="st51" points="119.4,210.9 119.4,215 84.3,235.3 49.2,215 49.2,210.9 	"/>
	<polygon class="st41" points="84.3,231.2 49.2,210.9 84.3,190.7 119.4,210.9 	"/>
	<polygon class="st42" points="84.3,230.8 49.6,210.7 49.2,210.9 84.3,231.2 119.4,210.9 119,210.7 	"/>
	<polygon class="st43" points="84.3,226.6 57.3,211 84.3,195.4 111.3,211 	"/>
	
		<linearGradient id="SVGID_32_" gradientUnits="userSpaceOnUse" x1="57.27" y1="84.9348" x2="111.32" y2="84.9348" gradientTransform="matrix(1 0 0 -1 0 295.8898)">
		<stop  offset="0" style="stop-color:#42E8E0"/>
		<stop  offset="0.15" style="stop-color:#43E3E0"/>
		<stop  offset="0.33" style="stop-color:#45D5DF"/>
		<stop  offset="0.52" style="stop-color:#49BDDD"/>
		<stop  offset="0.72" style="stop-color:#4E9CDB"/>
		<stop  offset="0.93" style="stop-color:#5472D8"/>
		<stop  offset="1" style="stop-color:#5761D7"/>
	</linearGradient>
	<polygon class="st52" points="84.3,226.6 57.3,211 84.3,195.4 111.3,211 	"/>
	
		<linearGradient id="SVGID_33_" gradientUnits="userSpaceOnUse" x1="84.29" y1="94.6998" x2="111.32" y2="94.6998" gradientTransform="matrix(1 0 0 -1 0 295.8898)">
		<stop  offset="0" style="stop-color:#42E8E0"/>
		<stop  offset="0.15" style="stop-color:#43E3E0"/>
		<stop  offset="0.33" style="stop-color:#45D5DF"/>
		<stop  offset="0.52" style="stop-color:#49BDDD"/>
		<stop  offset="0.72" style="stop-color:#4E9CDB"/>
		<stop  offset="0.93" style="stop-color:#5472D8"/>
		<stop  offset="1" style="stop-color:#5761D7"/>
	</linearGradient>
	<polygon class="st53" points="84.3,191.4 111.3,207 111.3,211 84.3,195.4 	"/>
	
		<linearGradient id="SVGID_34_" gradientUnits="userSpaceOnUse" x1="57.27" y1="94.6998" x2="84.3" y2="94.6998" gradientTransform="matrix(1 0 0 -1 0 295.8898)">
		<stop  offset="0" style="stop-color:#42E8E0"/>
		<stop  offset="0.15" style="stop-color:#43E3E0"/>
		<stop  offset="0.33" style="stop-color:#45D5DF"/>
		<stop  offset="0.52" style="stop-color:#49BDDD"/>
		<stop  offset="0.72" style="stop-color:#4E9CDB"/>
		<stop  offset="0.93" style="stop-color:#5472D8"/>
		<stop  offset="1" style="stop-color:#5761D7"/>
	</linearGradient>
	<polygon class="st54" points="84.3,195.4 57.3,211 57.3,207 84.3,191.4 	"/>
	
		<linearGradient id="SVGID_35_" gradientUnits="userSpaceOnUse" x1="57.27" y1="88.8648" x2="111.32" y2="88.8648" gradientTransform="matrix(1 0 0 -1 0 295.8898)">
		<stop  offset="0" style="stop-color:#42E8E0"/>
		<stop  offset="0.15" style="stop-color:#43E3E0"/>
		<stop  offset="0.33" style="stop-color:#45D5DF"/>
		<stop  offset="0.52" style="stop-color:#49BDDD"/>
		<stop  offset="0.72" style="stop-color:#4E9CDB"/>
		<stop  offset="0.93" style="stop-color:#5472D8"/>
		<stop  offset="1" style="stop-color:#5761D7"/>
	</linearGradient>
	<polygon class="st55" points="84.3,222.6 57.3,207 84.3,191.4 111.3,207 	"/>
	<polygon class="st1" points="84.3,213.3 73.5,207 84.3,200.8 95.1,207 	"/>
	<polygon class="st1" points="84.3,201.4 94.6,207.3 95.1,207 84.3,200.8 73.5,207 74,207.3 	"/>
	
		<linearGradient id="SVGID_36_" gradientUnits="userSpaceOnUse" x1="84.3" y1="79.0998" x2="111.32" y2="79.0998" gradientTransform="matrix(1 0 0 -1 0 295.8898)">
		<stop  offset="0" style="stop-color:#42E8E0"/>
		<stop  offset="0.15" style="stop-color:#43E3E0"/>
		<stop  offset="0.33" style="stop-color:#45D5DF"/>
		<stop  offset="0.52" style="stop-color:#49BDDD"/>
		<stop  offset="0.72" style="stop-color:#4E9CDB"/>
		<stop  offset="0.93" style="stop-color:#5472D8"/>
		<stop  offset="1" style="stop-color:#5761D7"/>
	</linearGradient>
	<polygon class="st56" points="84.3,222.6 84.3,226.6 111.3,211 111.3,207 	"/>
	
		<linearGradient id="SVGID_37_" gradientUnits="userSpaceOnUse" x1="57.27" y1="79.0998" x2="84.3" y2="79.0998" gradientTransform="matrix(1 0 0 -1 0 295.8898)">
		<stop  offset="0" style="stop-color:#42E8E0"/>
		<stop  offset="0.15" style="stop-color:#43E3E0"/>
		<stop  offset="0.33" style="stop-color:#45D5DF"/>
		<stop  offset="0.52" style="stop-color:#49BDDD"/>
		<stop  offset="0.72" style="stop-color:#4E9CDB"/>
		<stop  offset="0.93" style="stop-color:#5472D8"/>
		<stop  offset="1" style="stop-color:#5761D7"/>
	</linearGradient>
	<polygon class="st57" points="57.3,207 57.3,211 84.3,226.6 84.3,222.6 	"/>
	<polygon class="st50" points="84.3,222.2 57.6,206.8 57.3,207 84.3,222.6 111.3,207 110.9,206.8 	"/>
	<path class="st39" d="M225.1,153.3c-0.5,0-1-0.1-1.5-0.4l-33.1-19.1c-0.4-0.2-0.6-0.6-0.7-1c0.1-0.5,0.4-1,0.9-1.2l32.6-18.8
		c1-0.6,2.3-0.6,3.3-0.1l33.1,19.1c0.4,0.2,0.6,0.6,0.7,1c-0.1,0.5-0.4,1-0.9,1.2L227,152.8C226.4,153.1,225.8,153.3,225.1,153.3z
		 M223.9,152.5c0.9,0.4,2,0.4,2.8-0.1l32.6-18.8c0.3-0.1,0.6-0.4,0.6-0.8c0-0.2-0.2-0.5-0.4-0.6L226.5,113c-0.9-0.4-2-0.3-2.8,0.1
		L191.1,132c-0.3,0.1-0.6,0.4-0.6,0.8c0,0.2,0.2,0.5,0.4,0.6L223.9,152.5z"/>
	
		<linearGradient id="SVGID_38_" gradientUnits="userSpaceOnUse" x1="172.63" y1="164.9348" x2="262.69" y2="164.9348" gradientTransform="matrix(1 0 0 -1 0 295.8898)">
		<stop  offset="0" style="stop-color:#5761D7"/>
		<stop  offset="0.16" style="stop-color:#5E67DA"/>
		<stop  offset="0.41" style="stop-color:#727AE2"/>
		<stop  offset="0.69" style="stop-color:#9297EE"/>
		<stop  offset="1" style="stop-color:#BCBEFF"/>
	</linearGradient>
	<polygon class="st58" points="260.3,118.8 260.3,122.8 225.1,143.1 190,122.8 190,118.8 	"/>
	<polygon class="st41" points="225.1,139.1 190,118.8 225.1,98.5 260.3,118.8 	"/>
	<polygon class="st42" points="225.1,138.6 190.4,118.5 190,118.8 225.1,139.1 260.3,118.8 259.9,118.5 	"/>
	<polygon class="st43" points="225.1,134.4 198.1,118.8 225.1,103.2 252.2,118.8 	"/>
	
		<linearGradient id="SVGID_39_" gradientUnits="userSpaceOnUse" x1="198.12" y1="177.0998" x2="252.17" y2="177.0998" gradientTransform="matrix(1 0 0 -1 0 295.8898)">
		<stop  offset="0" style="stop-color:#42E8E0"/>
		<stop  offset="0.15" style="stop-color:#43E3E0"/>
		<stop  offset="0.33" style="stop-color:#45D5DF"/>
		<stop  offset="0.52" style="stop-color:#49BDDD"/>
		<stop  offset="0.72" style="stop-color:#4E9CDB"/>
		<stop  offset="0.93" style="stop-color:#5472D8"/>
		<stop  offset="1" style="stop-color:#5761D7"/>
	</linearGradient>
	<polygon class="st59" points="225.1,134.4 198.1,118.8 225.1,103.2 252.2,118.8 	"/>
	
		<linearGradient id="SVGID_40_" gradientUnits="userSpaceOnUse" x1="225.14" y1="186.8698" x2="252.17" y2="186.8698" gradientTransform="matrix(1 0 0 -1 0 295.8898)">
		<stop  offset="0" style="stop-color:#42E8E0"/>
		<stop  offset="0.15" style="stop-color:#43E3E0"/>
		<stop  offset="0.33" style="stop-color:#45D5DF"/>
		<stop  offset="0.52" style="stop-color:#49BDDD"/>
		<stop  offset="0.72" style="stop-color:#4E9CDB"/>
		<stop  offset="0.93" style="stop-color:#5472D8"/>
		<stop  offset="1" style="stop-color:#5761D7"/>
	</linearGradient>
	<polygon class="st60" points="225.1,99.2 252.2,114.9 252.2,118.8 225.1,103.2 	"/>
	
		<linearGradient id="SVGID_41_" gradientUnits="userSpaceOnUse" x1="198.12" y1="186.8698" x2="225.14" y2="186.8698" gradientTransform="matrix(1 0 0 -1 0 295.8898)">
		<stop  offset="0" style="stop-color:#42E8E0"/>
		<stop  offset="0.15" style="stop-color:#43E3E0"/>
		<stop  offset="0.33" style="stop-color:#45D5DF"/>
		<stop  offset="0.52" style="stop-color:#49BDDD"/>
		<stop  offset="0.72" style="stop-color:#4E9CDB"/>
		<stop  offset="0.93" style="stop-color:#5472D8"/>
		<stop  offset="1" style="stop-color:#5761D7"/>
	</linearGradient>
	<polygon class="st61" points="225.1,103.2 198.1,118.8 198.1,114.8 225.1,99.2 	"/>
	
		<linearGradient id="SVGID_42_" gradientUnits="userSpaceOnUse" x1="198.12" y1="181.0348" x2="252.17" y2="181.0348" gradientTransform="matrix(1 0 0 -1 0 295.8898)">
		<stop  offset="0" style="stop-color:#42E8E0"/>
		<stop  offset="0.15" style="stop-color:#43E3E0"/>
		<stop  offset="0.33" style="stop-color:#45D5DF"/>
		<stop  offset="0.52" style="stop-color:#49BDDD"/>
		<stop  offset="0.72" style="stop-color:#4E9CDB"/>
		<stop  offset="0.93" style="stop-color:#5472D8"/>
		<stop  offset="1" style="stop-color:#5761D7"/>
	</linearGradient>
	<polygon class="st62" points="225.1,130.5 198.1,114.8 225.1,99.2 252.2,114.9 	"/>
	<polygon class="st1" points="225.1,121.1 214.3,114.8 225.1,108.6 235.9,114.9 	"/>
	<polygon class="st1" points="225.1,109.2 235.4,115.1 235.9,114.9 225.1,108.6 214.3,114.8 214.8,115.1 	"/>
	
		<linearGradient id="SVGID_43_" gradientUnits="userSpaceOnUse" x1="225.14" y1="171.2648" x2="252.17" y2="171.2648" gradientTransform="matrix(1 0 0 -1 0 295.8898)">
		<stop  offset="0" style="stop-color:#42E8E0"/>
		<stop  offset="0.15" style="stop-color:#43E3E0"/>
		<stop  offset="0.33" style="stop-color:#45D5DF"/>
		<stop  offset="0.52" style="stop-color:#49BDDD"/>
		<stop  offset="0.72" style="stop-color:#4E9CDB"/>
		<stop  offset="0.93" style="stop-color:#5472D8"/>
		<stop  offset="1" style="stop-color:#5761D7"/>
	</linearGradient>
	<polygon class="st63" points="225.1,130.5 225.1,134.4 252.2,118.8 252.2,114.9 	"/>
	
		<linearGradient id="SVGID_44_" gradientUnits="userSpaceOnUse" x1="198.12" y1="171.2698" x2="225.14" y2="171.2698" gradientTransform="matrix(1 0 0 -1 0 295.8898)">
		<stop  offset="0" style="stop-color:#42E8E0"/>
		<stop  offset="0.15" style="stop-color:#43E3E0"/>
		<stop  offset="0.33" style="stop-color:#45D5DF"/>
		<stop  offset="0.52" style="stop-color:#49BDDD"/>
		<stop  offset="0.72" style="stop-color:#4E9CDB"/>
		<stop  offset="0.93" style="stop-color:#5472D8"/>
		<stop  offset="1" style="stop-color:#5761D7"/>
	</linearGradient>
	<polygon class="st64" points="198.1,114.8 198.1,118.8 225.1,134.4 225.1,130.5 	"/>
	<polygon class="st50" points="225.1,130 198.5,114.6 198.1,114.8 225.1,130.5 252.2,114.9 251.8,114.6 	"/>
	<path class="st39" d="M225.1,245.4c-0.5,0-1-0.1-1.5-0.3L190.6,226c-0.4-0.2-0.6-0.6-0.7-1c0.1-0.5,0.4-1,0.9-1.2l32.6-18.8
		c1-0.6,2.3-0.6,3.3-0.1l33.1,19.1c0.4,0.2,0.6,0.6,0.7,1c-0.1,0.5-0.4,1-0.9,1.2L227,244.9C226.4,245.2,225.8,245.4,225.1,245.4z
		 M223.9,244.6c0.9,0.4,2,0.3,2.8-0.1l32.6-18.8c0.4-0.2,0.6-0.5,0.6-0.8c0-0.2-0.2-0.4-0.4-0.5l-33.1-19.1c-0.9-0.4-2-0.4-2.8,0.1
		L191,224.2c-0.3,0.1-0.6,0.4-0.6,0.8c0,0.2,0.2,0.5,0.4,0.5L223.9,244.6z"/>
	
		<linearGradient id="SVGID_45_" gradientUnits="userSpaceOnUse" x1="172.63" y1="72.7648" x2="262.69" y2="72.7648" gradientTransform="matrix(1 0 0 -1 0 295.8898)">
		<stop  offset="0" style="stop-color:#5761D7"/>
		<stop  offset="0.16" style="stop-color:#5E67DA"/>
		<stop  offset="0.41" style="stop-color:#727AE2"/>
		<stop  offset="0.69" style="stop-color:#9297EE"/>
		<stop  offset="1" style="stop-color:#BCBEFF"/>
	</linearGradient>
	<polygon class="st65" points="260.3,210.9 260.3,215 225.1,235.3 190,215 190,210.9 	"/>
	<polygon class="st41" points="225.1,231.2 190,210.9 225.1,190.7 260.3,210.9 	"/>
	<polygon class="st42" points="225.1,230.8 190.4,210.7 190,210.9 225.1,231.2 260.3,210.9 259.9,210.7 	"/>
	<polygon class="st43" points="225.1,226.6 198.1,211 225.1,195.4 252.2,211 	"/>
	
		<linearGradient id="SVGID_46_" gradientUnits="userSpaceOnUse" x1="198.12" y1="84.9348" x2="252.17" y2="84.9348" gradientTransform="matrix(1 0 0 -1 0 295.8898)">
		<stop  offset="0" style="stop-color:#42E8E0"/>
		<stop  offset="0.15" style="stop-color:#43E3E0"/>
		<stop  offset="0.33" style="stop-color:#45D5DF"/>
		<stop  offset="0.52" style="stop-color:#49BDDD"/>
		<stop  offset="0.72" style="stop-color:#4E9CDB"/>
		<stop  offset="0.93" style="stop-color:#5472D8"/>
		<stop  offset="1" style="stop-color:#5761D7"/>
	</linearGradient>
	<polygon class="st66" points="225.1,226.6 198.1,211 225.1,195.4 252.2,211 	"/>
	
		<linearGradient id="SVGID_47_" gradientUnits="userSpaceOnUse" x1="225.14" y1="94.6998" x2="252.17" y2="94.6998" gradientTransform="matrix(1 0 0 -1 0 295.8898)">
		<stop  offset="0" style="stop-color:#42E8E0"/>
		<stop  offset="0.15" style="stop-color:#43E3E0"/>
		<stop  offset="0.33" style="stop-color:#45D5DF"/>
		<stop  offset="0.52" style="stop-color:#49BDDD"/>
		<stop  offset="0.72" style="stop-color:#4E9CDB"/>
		<stop  offset="0.93" style="stop-color:#5472D8"/>
		<stop  offset="1" style="stop-color:#5761D7"/>
	</linearGradient>
	<polygon class="st67" points="225.1,191.4 252.2,207 252.2,211 225.1,195.4 	"/>
	
		<linearGradient id="SVGID_48_" gradientUnits="userSpaceOnUse" x1="198.12" y1="94.6998" x2="225.14" y2="94.6998" gradientTransform="matrix(1 0 0 -1 0 295.8898)">
		<stop  offset="0" style="stop-color:#42E8E0"/>
		<stop  offset="0.15" style="stop-color:#43E3E0"/>
		<stop  offset="0.33" style="stop-color:#45D5DF"/>
		<stop  offset="0.52" style="stop-color:#49BDDD"/>
		<stop  offset="0.72" style="stop-color:#4E9CDB"/>
		<stop  offset="0.93" style="stop-color:#5472D8"/>
		<stop  offset="1" style="stop-color:#5761D7"/>
	</linearGradient>
	<polygon class="st68" points="225.1,195.4 198.1,211 198.1,207 225.1,191.4 	"/>
	
		<linearGradient id="SVGID_49_" gradientUnits="userSpaceOnUse" x1="198.12" y1="88.8648" x2="252.17" y2="88.8648" gradientTransform="matrix(1 0 0 -1 0 295.8898)">
		<stop  offset="0" style="stop-color:#42E8E0"/>
		<stop  offset="0.15" style="stop-color:#43E3E0"/>
		<stop  offset="0.33" style="stop-color:#45D5DF"/>
		<stop  offset="0.52" style="stop-color:#49BDDD"/>
		<stop  offset="0.72" style="stop-color:#4E9CDB"/>
		<stop  offset="0.93" style="stop-color:#5472D8"/>
		<stop  offset="1" style="stop-color:#5761D7"/>
	</linearGradient>
	<polygon class="st69" points="225.1,222.6 198.1,207 225.1,191.4 252.2,207 	"/>
	<polygon class="st1" points="225.1,213.3 214.3,207 225.1,200.8 235.9,207 	"/>
	<polygon class="st1" points="225.1,201.4 235.4,207.3 235.9,207 225.1,200.8 214.3,207 214.8,207.3 	"/>
	
		<linearGradient id="SVGID_50_" gradientUnits="userSpaceOnUse" x1="225.14" y1="79.0998" x2="252.17" y2="79.0998" gradientTransform="matrix(1 0 0 -1 0 295.8898)">
		<stop  offset="0" style="stop-color:#42E8E0"/>
		<stop  offset="0.15" style="stop-color:#43E3E0"/>
		<stop  offset="0.33" style="stop-color:#45D5DF"/>
		<stop  offset="0.52" style="stop-color:#49BDDD"/>
		<stop  offset="0.72" style="stop-color:#4E9CDB"/>
		<stop  offset="0.93" style="stop-color:#5472D8"/>
		<stop  offset="1" style="stop-color:#5761D7"/>
	</linearGradient>
	<polygon class="st70" points="225.1,222.6 225.1,226.6 252.2,211 252.2,207 	"/>
	
		<linearGradient id="SVGID_51_" gradientUnits="userSpaceOnUse" x1="198.12" y1="79.0998" x2="225.14" y2="79.0998" gradientTransform="matrix(1 0 0 -1 0 295.8898)">
		<stop  offset="0" style="stop-color:#42E8E0"/>
		<stop  offset="0.15" style="stop-color:#43E3E0"/>
		<stop  offset="0.33" style="stop-color:#45D5DF"/>
		<stop  offset="0.52" style="stop-color:#49BDDD"/>
		<stop  offset="0.72" style="stop-color:#4E9CDB"/>
		<stop  offset="0.93" style="stop-color:#5472D8"/>
		<stop  offset="1" style="stop-color:#5761D7"/>
	</linearGradient>
	<polygon class="st71" points="198.1,207 198.1,211 225.1,226.6 225.1,222.6 	"/>
	<polygon class="st50" points="225.1,222.2 198.5,206.8 198.1,207 225.1,222.6 252.2,207 251.8,206.8 	"/>
	<g class="st72">
		<path class="st1" d="M54.8,17.1c24.3-7.3,38.7,20.2,24.5,46.7c-12,22.5-41.4,38.8-49,15.1c-4.5-13.9-0.8-48,22.2-60.8
			c-6.2,3.2-10.7,7.7-15.2,15.1c8.5,10.4,9.2,11.3,16.5,19.7c8.7-20.5,9.4-22.1,15.8-36C64.8,15.2,59.6,15.2,54.8,17.1L54.8,17.1z
			 M53.1,17.8l-0.5,0.3L53.1,17.8z M54.4,17.3l0.4-0.2L54.4,17.3z M53.8,17.5l-0.6,0.3L53.8,17.5z M53.8,17.5l0.5-0.2L53.8,17.5z"/>
		<path class="st0" d="M13.8,43.2c1.4-1.5,2.9-3,4.6-4.4v70.8c-1.6,1.4-3.1,2.9-4.6,4.4V43.2z"/>
		<path class="st0" d="M6.5,77.3c1-1.6,2.1-3.2,3.3-4.7v45.9c-1.2,1.5-2.3,3.1-3.3,4.7V77.3z"/>
		<path class="st1" d="M0,130.7l0.1,0.2l0.1-4.6L0,126V130.7z M0,144.4V73.6c0-0.4,0-0.9,0-1.4c0.1-3.2,0.7-6.4,1.7-9.5v70.8
			c-1,3.1-1.5,6.3-1.7,9.5C0,143.5,0,143.9,0,144.4z"/>
		<polygon class="st0" points="0,130.7 0.1,130.9 0.2,126.2 0,126 0,130.7 		"/>
		<path class="st0" d="M52.6,18.1L52.6,18.1L52.6,18.1z M54.8,17.1L54.8,17.1L54.8,17.1z M53.2,17.8L53.2,17.8L53.2,17.8z
			 M54.2,17.3h0.1H54.2L54.2,17.3z"/>
		<path class="st0" d="M53.8,17.5c5-2.3,10.6-2.5,15.8-0.6c-9,19.9-10,22-15.8,36c-8.9-10.4-10.3-12-16.5-19.7
			C39.1,30.4,44.4,21.5,53.8,17.5L53.8,17.5z"/>
		<path class="st1" d="M110,191.7c-7.3,2.2-12-2.3-13.7-3.6c-13.4-11.3-25.1-25.1-38.5-36.4c-4-3.3-6.4-2-7.8-1.6
			c-25,9.9-25,9.9-29,3.9c-7.4-13-7.6-14.1-11-22.2c-0.8-1.9-3.4-4.7-4.6-4.5c-5.6,1.6-4.9,2.7-5.4,3.4v-4.8c6.6-2.6,7.3-2.9,10,3.3
			c12.3,26.3,14.5,25.7,17.3,25c26.3-10.5,26-9.8,32.7-2.8c11.6,12.1,35,35.6,42.3,37.5c2.6,0.2,5.3,0,7.8-0.6
			c25.4-8.5,35.5-13.9,60.4-24.6l2.2,3.6c-9.2,4-37,15-62.6,23L110,191.7z M189.4,220.3v-70.8c-7.8,0.5-15.8,0.6-23.9,0.6
			C73.5,149.3,0,115.2,0,73.6v70.8c0,41.6,73.5,75.7,165.5,76.4C173.6,220.9,181.6,220.7,189.4,220.3L189.4,220.3z"/>
		<path class="st0" d="M110,191.7c-6.5,1.7-12.7,3.3-51.3-38.2c-4.9-4.9-4.9-4.9-29.9,5.1c-2.9,0.7-7.1,1.7-19-26.5
			c-3.7-8.3-9.8-1.5-9.8-1.4v-4.8c1.6-1,3.4-1.7,5.3-2.1c0.6-0.2,1.2-0.1,1.7,0.1c0.8,0.4,1.7,1.4,3.1,4.5C17,143,17,143,21.9,150.9
			c2.9,4.3,2.9,4.3,26.4-5c1.6-0.4,5-1.3,10,2.7c14.1,11.3,25.7,25.4,39.6,36.9c5.3,3.7,8.4,6,72.7-21.7l2.2,3.6
			C163.6,171.4,135.6,183.6,110,191.7L110,191.7z"/>
	</g>
</g>
</svg>
