<svg id="Слой_2" data-name="Слой 2" xmlns="http://www.w3.org/2000/svg" viewBox="0 0 433.66 110.72"><defs><style>.cls-1{fill:#084872;}.cls-2{fill:#3c92d0;}</style></defs><path class="cls-1" d="M129.62,134.76l12.12-20.94s-28.41-2.25-46.43,20.94Z" transform="translate(-47.5 -113.77)"/><path class="cls-1" d="M130.4,204.77l11.35,19.66H102.1S119.51,220.07,130.4,204.77Z" transform="translate(-47.5 -113.77)"/><path class="cls-2" d="M83.21,183.11l10.2,17.49s14.75.79,24.16-8.75c8.92-9,6.66-18.17,6.44-19.25-.48-2.43-2.87-7.64-8.87-8.52,0,0,6,2.11,6.28,8.51s-4.25,12.82-10.87,15.29C104.44,190.16,95.66,192.12,83.21,183.11Z" transform="translate(-47.5 -113.77)"/><path class="cls-2" d="M85.37,151.68,75.21,169.19s6.6,13.22,19.54,16.68c12.28,3.28,19.09-3.19,19.92-3.92,1.87-1.62,5.22-6.27,3-11.93,0,0,1.14,6.28-4.3,9.67s-13.23,2.64-18.66-1.89C89.73,173.62,83.69,167,85.37,151.68Z" transform="translate(-47.5 -113.77)"/><path class="cls-2" d="M113.58,137.73l-20.24-.06s-8.17,12.31-4.7,25.25c3.28,12.28,12.28,15,13.33,15.31,2.34.82,8,1.4,11.84-3.33,0,0-4.87,4.11-10.52,1.1s-8.9-10.15-7.67-17.12C96.75,152.46,99.51,143.9,113.58,137.73Z" transform="translate(-47.5 -113.77)"/><path class="cls-2" d="M139.76,155.16l-10.21-17.48s-14.75-.79-24.15,8.76c-8.92,9.05-6.66,18.17-6.44,19.25.49,2.43,2.88,7.64,8.88,8.52,0,0-6-2.11-6.28-8.51s4.24-12.82,10.86-15.29C118.53,148.12,127.3,146.16,139.76,155.16Z" transform="translate(-47.5 -113.77)"/><path class="cls-2" d="M137.64,186.77l10.18-17.49s-6.58-13.23-19.52-16.7c-12.28-3.3-19.1,3.16-19.93,3.88-1.87,1.62-5.23,6.27-3,11.93,0,0-1.12-6.28,4.32-9.67s13.24-2.62,18.65,1.92C133.3,164.83,139.33,171.5,137.64,186.77Z" transform="translate(-47.5 -113.77)"/><path class="cls-2" d="M109.28,200.61l20.24,0s8.1-12.35,4.58-25.27c-3.34-12.27-12.36-14.9-13.4-15.25-2.35-.8-8-1.36-11.83,3.39,0,0,4.85-4.14,10.52-1.15s8.94,10.11,7.75,17.08C126,185.81,123.32,194.37,109.28,200.61Z" transform="translate(-47.5 -113.77)"/><path class="cls-1" d="M127.57,203.38c-16.43,23.18-47.89,21.05-47.89,21.05L58.81,188.54s14.31,15,36.17,15S127.57,203.38,127.57,203.38Z" transform="translate(-47.5 -113.77)"/><path class="cls-1" d="M73.65,165.77c-11.8-25.85,5.85-52,5.85-52H121s-20.19,4.82-31.12,23.75S73.65,165.77,73.65,165.77Z" transform="translate(-47.5 -113.77)"/><path class="cls-1" d="M89.57,200.18c-28.28-2.73-42.07-31.09-42.07-31.09l20.78-35.94S62.34,153,73.26,172,89.57,200.18,89.57,200.18Z" transform="translate(-47.5 -113.77)"/><path class="cls-1" d="M149.64,139.13l.91-1.46h5l18.25,33.39L192,137.67h5.11l.82,1.46L176.83,177v23.63h-6.12V177Z" transform="translate(-47.5 -113.77)"/><path class="cls-1" d="M207.2,187V151.26q0-13.59,13.6-13.59h26.09l3.56,2.73v2.83H220.52q-7.2,0-7.2,7.12v37.58q0,7.13,7.2,7.12h29.93v2.83l-3.56,2.73H220.8Q207.2,200.61,207.2,187Z" transform="translate(-47.5 -113.77)"/><path class="cls-1" d="M263.4,200.61V137.67h6.11v57.38h31.66v5.56Z" transform="translate(-47.5 -113.77)"/><path class="cls-1" d="M310.84,187V151.26q0-13.59,13.59-13.59h21.44q13.59,0,13.59,13.59V187q0,13.59-13.59,13.59H324.43Q310.84,200.61,310.84,187Zm6.11.91q0,7.13,7.21,7.12h22.07q7.13,0,7.12-7.12V150.35q0-7.12-7.12-7.12H324.16q-7.21,0-7.21,7.12Z" transform="translate(-47.5 -113.77)"/><path class="cls-1" d="M375.43,200.61V137.67h6.84l35.49,53.91V137.67h6v62.94H417L381.54,146.7v53.91Z" transform="translate(-47.5 -113.77)"/><path class="cls-1" d="M440.65,200.61V137.67h40.51v5.56H446.77v21.44h31.65v5.47H446.77v24.91h34.39v5.56Z" transform="translate(-47.5 -113.77)"/></svg>