<svg id="Слой_2" data-name="Слой 2" xmlns="http://www.w3.org/2000/svg" viewBox="0 0 270.09 298.1"><defs><style>.cls-1{fill:#084872;}.cls-2{fill:#3c92d0;}</style></defs><path class="cls-1" d="M373.08,365l32.64-56.36s-76.51-6.06-125,56.36Z" transform="translate(-151.98 -308.43)"/><path class="cls-1" d="M375.16,553.45l30.59,52.94H299S345.85,594.65,375.16,553.45Z" transform="translate(-151.98 -308.43)"/><path class="cls-2" d="M248.12,495.14l27.47,47.08s39.72,2.15,65-23.54c24-24.38,17.94-48.92,17.36-51.84-1.31-6.54-7.73-20.57-23.9-22.95,0,0,16.19,5.69,16.91,22.93s-11.44,34.5-29.27,41.16C305.27,514.12,281.65,519.39,248.12,495.14Z" transform="translate(-151.98 -308.43)"/><path class="cls-2" d="M253.92,410.52l-27.35,47.15s17.77,35.59,52.62,44.89c33.06,8.83,51.39-8.59,53.64-10.54,5-4.37,14.06-16.89,8.13-32.12,0,0,3.06,16.89-11.58,26s-35.63,7.11-50.24-5.1C265.67,469.57,249.41,451.65,253.92,410.52Z" transform="translate(-151.98 -308.43)"/><path class="cls-2" d="M329.89,373l-54.51-.18s-22,33.16-12.66,68c8.85,33.05,33.09,40.26,35.9,41.23,6.3,2.19,21.65,3.76,31.89-9,0,0-13.11,11.07-28.34,2.95s-23.94-27.34-20.64-46.09C284.57,412.61,292,389.58,329.89,373Z" transform="translate(-151.98 -308.43)"/><path class="cls-2" d="M400.37,419.89l-27.49-47.07s-39.72-2.12-65,23.58c-24,24.38-17.92,48.93-17.33,51.85,1.31,6.53,7.74,20.56,23.91,22.93,0,0-16.2-5.68-16.92-22.92s11.42-34.5,29.25-41.17C343.22,400.94,366.83,395.66,400.37,419.89Z" transform="translate(-151.98 -308.43)"/><path class="cls-2" d="M394.65,505l27.42-47.11s-17.72-35.61-52.56-45c-33-8.87-51.4,8.52-53.65,10.47-5.05,4.36-14.09,16.87-8.18,32.11,0,0-3-16.9,11.61-26s35.65-7.06,50.24,5.17C383,445.93,399.22,463.87,394.65,505Z" transform="translate(-151.98 -308.43)"/><path class="cls-2" d="M318.3,542.26l54.51-.08s21.82-33.26,12.33-68.06c-9-33-33.28-40.09-36.1-41.06-6.31-2.15-21.66-3.65-31.84,9.13,0,0,13.05-11.14,28.32-3.09s24.07,27.22,20.87,46C363.43,502.4,356.12,525.46,318.3,542.26Z" transform="translate(-151.98 -308.43)"/><path class="cls-1" d="M367.55,549.71c-44.23,62.42-128.94,56.68-128.94,56.68l-56.18-96.63s38.52,40.48,97.38,40.31S367.55,549.71,367.55,549.71Z" transform="translate(-151.98 -308.43)"/><path class="cls-1" d="M222.37,448.44c-31.75-69.6,15.77-140,15.77-140l111.77,0s-54.35,13-83.77,63.95S222.37,448.44,222.37,448.44Z" transform="translate(-151.98 -308.43)"/><path class="cls-1" d="M265.25,541.1C189.1,533.75,152,457.39,152,457.39l55.93-96.78s-16,53.55,13.42,104.53S265.25,541.1,265.25,541.1Z" transform="translate(-151.98 -308.43)"/></svg>