<?xml version="1.0" encoding="utf-8"?>
<!-- Generator: Adobe Illustrator 24.1.2, SVG Export Plug-In . SVG Version: 6.00 Build 0)  -->
<svg version="1.1" id="Слой_1" xmlns="http://www.w3.org/2000/svg" xmlns:xlink="http://www.w3.org/1999/xlink" x="0px" y="0px"
	 viewBox="0 0 488.6 270.9" style="enable-background:new 0 0 488.6 270.9;" xml:space="preserve">
<style type="text/css">
	.st0{fill:#8686F2;}
	.st1{opacity:0.6;fill:url(#SVGID_1_);enable-background:new    ;}
	.st2{opacity:0.6;fill:url(#SVGID_2_);enable-background:new    ;}
	.st3{opacity:0.6;fill:url(#SVGID_3_);enable-background:new    ;}
	.st4{opacity:0.6;fill:url(#SVGID_4_);enable-background:new    ;}
	.st5{opacity:0.6;fill:url(#SVGID_5_);enable-background:new    ;}
	.st6{opacity:0.6;fill:url(#SVGID_6_);enable-background:new    ;}
	.st7{opacity:0.6;fill:url(#SVGID_7_);enable-background:new    ;}
	.st8{opacity:0.6;fill:url(#SVGID_8_);enable-background:new    ;}
	.st9{fill:url(#SVGID_9_);}
	.st10{fill:#BCBEFF;}
	.st11{fill:#FFFFFF;}
	.st12{fill:#0F054C;}
	.st13{opacity:0.5;fill:url(#SVGID_10_);enable-background:new    ;}
	.st14{opacity:0.5;fill:url(#SVGID_11_);enable-background:new    ;}
	.st15{opacity:0.5;fill:url(#SVGID_12_);enable-background:new    ;}
	.st16{opacity:0.5;fill:url(#SVGID_13_);enable-background:new    ;}
	.st17{opacity:0.5;fill:#42E8E0;enable-background:new    ;}
	.st18{opacity:0.5;fill:url(#SVGID_14_);enable-background:new    ;}
	.st19{opacity:0.5;fill:url(#SVGID_15_);enable-background:new    ;}
	.st20{opacity:0.8;fill:#42E8E0;enable-background:new    ;}
	.st21{fill:url(#SVGID_16_);}
	.st22{opacity:0.5;fill:url(#SVGID_17_);enable-background:new    ;}
	.st23{opacity:0.5;fill:url(#SVGID_18_);enable-background:new    ;}
	.st24{opacity:0.5;fill:url(#SVGID_19_);enable-background:new    ;}
	.st25{opacity:0.5;fill:url(#SVGID_20_);enable-background:new    ;}
	.st26{opacity:0.5;fill:url(#SVGID_21_);enable-background:new    ;}
	.st27{opacity:0.5;fill:url(#SVGID_22_);enable-background:new    ;}
	.st28{opacity:0.7;fill:#453C9E;enable-background:new    ;}
	.st29{fill:url(#SVGID_23_);}
	.st30{fill:#24126A;}
	.st31{opacity:0.51;}
	.st32{fill:#453C9E;}
	.st33{fill:#42E8E0;}
	.st34{fill:url(#SVGID_24_);}
	.st35{opacity:0.51;fill:#453C9E;enable-background:new    ;}
	.st36{opacity:0.1;fill:#42E8E0;enable-background:new    ;}
	.st37{opacity:0.4;fill:#42E8E0;enable-background:new    ;}
	.st38{fill:url(#SVGID_25_);}
	.st39{fill:url(#SVGID_26_);}
	.st40{fill:url(#SVGID_27_);}
	.st41{fill:url(#SVGID_28_);}
	.st42{fill:#2842A2;}
	.st43{fill:#ADB1F2;}
	.st44{fill:#9198DB;}
	.st45{fill:url(#SVGID_29_);}
	.st46{opacity:0.11;}
	.st47{clip-path:url(#SVGID_31_);}
	.st48{fill:url(#SVGID_32_);}
	.st49{fill:url(#SVGID_33_);}
	.st50{fill:url(#SVGID_34_);}
	.st51{fill:url(#SVGID_35_);}
	.st52{fill:url(#SVGID_36_);}
	.st53{fill:url(#SVGID_37_);}
	.st54{fill:url(#SVGID_38_);}
	.st55{clip-path:url(#SVGID_40_);}
	.st56{fill:url(#SVGID_41_);}
	.st57{fill:url(#SVGID_42_);}
</style>
<g>
	<g id="Слой_1_1_">
		<path class="st0" d="M331.3,268.9c-0.9,0-1.7-0.2-2.5-0.7L290.4,246l0.3-0.6l38.4,22.2c1.3,0.8,3,0.8,4.3,0l11.2-6.5l62.8-36.3
			c0.3-0.2,0.5-0.5,0.5-0.8c0-0.3-0.2-0.6-0.5-0.8l-65.1-37.6l0.3-0.6l65.1,37.6c0.5,0.3,0.8,0.8,0.8,1.4c0,0.6-0.3,1.1-0.8,1.4
			L345,261.7l-11.2,6.5C333,268.7,332.1,268.9,331.3,268.9z"/>
		<path class="st0" d="M85.8,175.6l-0.3-0.6l45.5-26.3c1.6-0.9,3.6-0.9,5.2,0l21.3,12.3l-0.3,0.6l-21.3-12.3c-1.4-0.8-3.1-0.8-4.5,0
			L85.8,175.6z"/>
		<path class="st0" d="M407.1,175.6l-45.5-26.3c-1.4-0.8-3.1-0.8-4.5,0l-21.3,12.3l-0.3-0.6l21.3-12.3c1.6-0.9,3.6-0.9,5.2,0
			l45.5,26.3L407.1,175.6z"/>
		
			<linearGradient id="SVGID_1_" gradientUnits="userSpaceOnUse" x1="-1550.1863" y1="986.1771" x2="-1550.1863" y2="1026.2332" gradientTransform="matrix(0.87 0.5 1 -0.58 698.2319 1503.201)">
			<stop  offset="0" style="stop-color:#42E8E0"/>
			<stop  offset="2.000000e-02" style="stop-color:#40DEDA"/>
			<stop  offset="0.11" style="stop-color:#37ADBC"/>
			<stop  offset="0.22" style="stop-color:#2E82A2"/>
			<stop  offset="0.32" style="stop-color:#285E8C"/>
			<stop  offset="0.43" style="stop-color:#22417A"/>
			<stop  offset="0.55" style="stop-color:#1E2A6C"/>
			<stop  offset="0.67" style="stop-color:#1A1A63"/>
			<stop  offset="0.81" style="stop-color:#19105D"/>
			<stop  offset="1" style="stop-color:#180D5B"/>
		</linearGradient>
		<polygon class="st1" points="392.8,140.4 362.9,123.1 322.8,146.3 352.8,163.5 		"/>
		
			<linearGradient id="SVGID_2_" gradientUnits="userSpaceOnUse" x1="751.7387" y1="245.5405" x2="751.7387" y2="291.7878" gradientTransform="matrix(1 -0.58 -0.87 -0.5 -232.5359 712.3071)">
			<stop  offset="0" style="stop-color:#42E8E0"/>
			<stop  offset="2.000000e-02" style="stop-color:#40DEDA"/>
			<stop  offset="0.11" style="stop-color:#37ADBC"/>
			<stop  offset="0.22" style="stop-color:#2E82A2"/>
			<stop  offset="0.32" style="stop-color:#285E8C"/>
			<stop  offset="0.43" style="stop-color:#22417A"/>
			<stop  offset="0.55" style="stop-color:#1E2A6C"/>
			<stop  offset="0.67" style="stop-color:#1A1A63"/>
			<stop  offset="0.81" style="stop-color:#19105D"/>
			<stop  offset="1" style="stop-color:#180D5B"/>
		</linearGradient>
		<polygon class="st2" points="282.8,123.1 252.8,140.4 292.9,163.5 322.8,146.3 		"/>
		
			<linearGradient id="SVGID_3_" gradientUnits="userSpaceOnUse" x1="273.595" y1="-2018.1775" x2="273.595" y2="-1978.1349" gradientTransform="matrix(-0.87 -0.5 -1 0.58 -1467.2618 1476.5389)">
			<stop  offset="0" style="stop-color:#42E8E0"/>
			<stop  offset="2.000000e-02" style="stop-color:#40DEDA"/>
			<stop  offset="0.11" style="stop-color:#37ADBC"/>
			<stop  offset="0.22" style="stop-color:#2E82A2"/>
			<stop  offset="0.32" style="stop-color:#285E8C"/>
			<stop  offset="0.43" style="stop-color:#22417A"/>
			<stop  offset="0.55" style="stop-color:#1E2A6C"/>
			<stop  offset="0.67" style="stop-color:#1A1A63"/>
			<stop  offset="0.81" style="stop-color:#19105D"/>
			<stop  offset="1" style="stop-color:#180D5B"/>
		</linearGradient>
		<polygon class="st3" points="252.8,186.7 282.8,203.9 322.8,180.8 292.9,163.5 		"/>
		
			<linearGradient id="SVGID_4_" gradientUnits="userSpaceOnUse" x1="-2249.6199" y1="-1592.8511" x2="-2249.6199" y2="-1546.6138" gradientTransform="matrix(-1 0.58 0.87 0.5 -536.4941 2267.4229)">
			<stop  offset="0" style="stop-color:#42E8E0"/>
			<stop  offset="2.000000e-02" style="stop-color:#40DEDA"/>
			<stop  offset="0.11" style="stop-color:#37ADBC"/>
			<stop  offset="0.22" style="stop-color:#2E82A2"/>
			<stop  offset="0.32" style="stop-color:#285E8C"/>
			<stop  offset="0.43" style="stop-color:#22417A"/>
			<stop  offset="0.55" style="stop-color:#1E2A6C"/>
			<stop  offset="0.67" style="stop-color:#1A1A63"/>
			<stop  offset="0.81" style="stop-color:#19105D"/>
			<stop  offset="1" style="stop-color:#180D5B"/>
		</linearGradient>
		<polygon class="st4" points="362.9,203.9 392.8,186.7 352.8,163.5 322.8,180.8 		"/>
		
			<linearGradient id="SVGID_5_" gradientUnits="userSpaceOnUse" x1="-1639.2386" y1="909.067" x2="-1639.2386" y2="949.1182" gradientTransform="matrix(0.87 0.5 1 -0.58 698.2319 1503.201)">
			<stop  offset="0" style="stop-color:#42E8E0"/>
			<stop  offset="2.000000e-02" style="stop-color:#40DEDA"/>
			<stop  offset="0.11" style="stop-color:#37ADBC"/>
			<stop  offset="0.22" style="stop-color:#2E82A2"/>
			<stop  offset="0.32" style="stop-color:#285E8C"/>
			<stop  offset="0.43" style="stop-color:#22417A"/>
			<stop  offset="0.55" style="stop-color:#1E2A6C"/>
			<stop  offset="0.67" style="stop-color:#1A1A63"/>
			<stop  offset="0.81" style="stop-color:#19105D"/>
			<stop  offset="1" style="stop-color:#180D5B"/>
		</linearGradient>
		<polygon class="st5" points="238.6,140.4 208.6,123.1 168.6,146.3 198.5,163.5 		"/>
		
			<linearGradient id="SVGID_6_" gradientUnits="userSpaceOnUse" x1="674.9719" y1="334.5905" x2="674.9719" y2="380.8378" gradientTransform="matrix(1 -0.58 -0.87 -0.5 -232.5359 712.3071)">
			<stop  offset="0" style="stop-color:#42E8E0"/>
			<stop  offset="2.000000e-02" style="stop-color:#40DEDA"/>
			<stop  offset="0.11" style="stop-color:#37ADBC"/>
			<stop  offset="0.22" style="stop-color:#2E82A2"/>
			<stop  offset="0.32" style="stop-color:#285E8C"/>
			<stop  offset="0.43" style="stop-color:#22417A"/>
			<stop  offset="0.55" style="stop-color:#1E2A6C"/>
			<stop  offset="0.67" style="stop-color:#1A1A63"/>
			<stop  offset="0.81" style="stop-color:#19105D"/>
			<stop  offset="1" style="stop-color:#180D5B"/>
		</linearGradient>
		<polygon class="st6" points="128.5,123.1 98.6,140.4 138.6,163.5 168.6,146.3 		"/>
		
			<linearGradient id="SVGID_7_" gradientUnits="userSpaceOnUse" x1="362.6475" y1="-1941.0576" x2="362.6475" y2="-1901.015" gradientTransform="matrix(-0.87 -0.5 -1 0.58 -1467.2618 1476.5389)">
			<stop  offset="0" style="stop-color:#42E8E0"/>
			<stop  offset="2.000000e-02" style="stop-color:#40DEDA"/>
			<stop  offset="0.11" style="stop-color:#37ADBC"/>
			<stop  offset="0.22" style="stop-color:#2E82A2"/>
			<stop  offset="0.32" style="stop-color:#285E8C"/>
			<stop  offset="0.43" style="stop-color:#22417A"/>
			<stop  offset="0.55" style="stop-color:#1E2A6C"/>
			<stop  offset="0.67" style="stop-color:#1A1A63"/>
			<stop  offset="0.81" style="stop-color:#19105D"/>
			<stop  offset="1" style="stop-color:#180D5B"/>
		</linearGradient>
		<polygon class="st7" points="98.6,186.7 128.5,203.9 168.6,180.8 138.6,163.5 		"/>
		
			<linearGradient id="SVGID_8_" gradientUnits="userSpaceOnUse" x1="-2172.8503" y1="-1681.9011" x2="-2172.8503" y2="-1635.6581" gradientTransform="matrix(-1 0.58 0.87 0.5 -536.4941 2267.4229)">
			<stop  offset="0" style="stop-color:#42E8E0"/>
			<stop  offset="2.000000e-02" style="stop-color:#40DEDA"/>
			<stop  offset="0.11" style="stop-color:#37ADBC"/>
			<stop  offset="0.22" style="stop-color:#2E82A2"/>
			<stop  offset="0.32" style="stop-color:#285E8C"/>
			<stop  offset="0.43" style="stop-color:#22417A"/>
			<stop  offset="0.55" style="stop-color:#1E2A6C"/>
			<stop  offset="0.67" style="stop-color:#1A1A63"/>
			<stop  offset="0.81" style="stop-color:#19105D"/>
			<stop  offset="1" style="stop-color:#180D5B"/>
		</linearGradient>
		<polygon class="st8" points="208.6,203.9 238.6,186.7 198.5,163.5 168.6,180.8 		"/>
		<path class="st0" d="M168.8,196.4c-0.6,0-1.1-0.1-1.6-0.4L131,175.1c-0.4-0.2-0.7-0.6-0.7-1.1c0.1-0.6,0.4-1.1,1-1.3l35.7-20.6
			c1.1-0.6,2.5-0.7,3.7-0.1l36.2,20.9c0.4,0.2,0.7,0.6,0.7,1.1c-0.1,0.6-0.4,1.1-1,1.3l-35.7,20.6
			C170.2,196.2,169.5,196.4,168.8,196.4z M167.5,195.5c1,0.4,2.1,0.4,3.1-0.1l35.7-20.6c0.4-0.3,0.7-0.6,0.7-0.9
			c0-0.3-0.2-0.5-0.5-0.6l-36.2-20.9c-1-0.4-2.1-0.4-3.1,0.1l-35.7,20.6c-0.4,0.2-0.6,0.5-0.7,0.9c0,0.3,0.2,0.5,0.4,0.6
			L167.5,195.5z"/>
		
			<linearGradient id="SVGID_9_" gradientUnits="userSpaceOnUse" x1="111.37" y1="99.8948" x2="209.85" y2="99.8948" gradientTransform="matrix(1 0 0 -1 0 271.8898)">
			<stop  offset="0" style="stop-color:#5761D7"/>
			<stop  offset="0.16" style="stop-color:#5E67DA"/>
			<stop  offset="0.41" style="stop-color:#727AE2"/>
			<stop  offset="0.69" style="stop-color:#9297EE"/>
			<stop  offset="1" style="stop-color:#BCBEFF"/>
		</linearGradient>
		<polygon class="st9" points="207.2,158.7 207.2,163.1 168.8,185.3 130.4,163.1 130.4,158.7 		"/>
		<polygon class="st10" points="168.8,180.9 130.4,158.7 168.8,136.5 207.2,158.7 		"/>
		<polygon class="st11" points="168.8,180.4 130.8,158.4 130.4,158.7 168.8,180.9 207.2,158.7 206.8,158.4 		"/>
		<polygon class="st12" points="168.8,175.8 139.2,158.7 168.8,141.6 198.3,158.7 		"/>
		
			<linearGradient id="SVGID_10_" gradientUnits="userSpaceOnUse" x1="139.24" y1="113.2048" x2="198.35" y2="113.2048" gradientTransform="matrix(1 0 0 -1 0 271.8898)">
			<stop  offset="0" style="stop-color:#42E8E0"/>
			<stop  offset="0.15" style="stop-color:#43E3E0"/>
			<stop  offset="0.33" style="stop-color:#45D5DF"/>
			<stop  offset="0.52" style="stop-color:#49BDDD"/>
			<stop  offset="0.72" style="stop-color:#4E9CDB"/>
			<stop  offset="0.93" style="stop-color:#5472D8"/>
			<stop  offset="1" style="stop-color:#5761D7"/>
		</linearGradient>
		<polygon class="st13" points="168.8,175.8 139.2,158.7 168.8,141.6 198.3,158.7 		"/>
		
			<linearGradient id="SVGID_11_" gradientUnits="userSpaceOnUse" x1="168.79" y1="123.8898" x2="198.35" y2="123.8898" gradientTransform="matrix(1 0 0 -1 0 271.8898)">
			<stop  offset="0" style="stop-color:#42E8E0"/>
			<stop  offset="0.15" style="stop-color:#43E3E0"/>
			<stop  offset="0.33" style="stop-color:#45D5DF"/>
			<stop  offset="0.52" style="stop-color:#49BDDD"/>
			<stop  offset="0.72" style="stop-color:#4E9CDB"/>
			<stop  offset="0.93" style="stop-color:#5472D8"/>
			<stop  offset="1" style="stop-color:#5761D7"/>
		</linearGradient>
		<polygon class="st14" points="168.8,137.3 198.3,154.4 198.3,158.7 168.8,141.6 		"/>
		
			<linearGradient id="SVGID_12_" gradientUnits="userSpaceOnUse" x1="139.24" y1="123.8898" x2="168.79" y2="123.8898" gradientTransform="matrix(1 0 0 -1 0 271.8898)">
			<stop  offset="0" style="stop-color:#42E8E0"/>
			<stop  offset="0.15" style="stop-color:#43E3E0"/>
			<stop  offset="0.33" style="stop-color:#45D5DF"/>
			<stop  offset="0.52" style="stop-color:#49BDDD"/>
			<stop  offset="0.72" style="stop-color:#4E9CDB"/>
			<stop  offset="0.93" style="stop-color:#5472D8"/>
			<stop  offset="1" style="stop-color:#5761D7"/>
		</linearGradient>
		<polygon class="st15" points="168.8,141.6 139.2,158.7 139.2,154.4 168.8,137.3 		"/>
		
			<linearGradient id="SVGID_13_" gradientUnits="userSpaceOnUse" x1="139.24" y1="117.5098" x2="198.35" y2="117.5098" gradientTransform="matrix(1 0 0 -1 0 271.8898)">
			<stop  offset="0" style="stop-color:#42E8E0"/>
			<stop  offset="0.15" style="stop-color:#43E3E0"/>
			<stop  offset="0.33" style="stop-color:#45D5DF"/>
			<stop  offset="0.52" style="stop-color:#49BDDD"/>
			<stop  offset="0.72" style="stop-color:#4E9CDB"/>
			<stop  offset="0.93" style="stop-color:#5472D8"/>
			<stop  offset="1" style="stop-color:#5761D7"/>
		</linearGradient>
		<polygon class="st16" points="168.8,171.4 139.2,154.4 168.8,137.3 198.3,154.4 		"/>
		<polygon class="st17" points="168.8,161.2 157,154.4 168.8,147.6 180.6,154.4 		"/>
		<polygon class="st17" points="168.8,148.2 180.1,154.7 180.6,154.4 168.8,147.6 157,154.4 157.5,154.7 		"/>
		
			<linearGradient id="SVGID_14_" gradientUnits="userSpaceOnUse" x1="168.79" y1="106.8248" x2="198.35" y2="106.8248" gradientTransform="matrix(1 0 0 -1 0 271.8898)">
			<stop  offset="0" style="stop-color:#42E8E0"/>
			<stop  offset="0.15" style="stop-color:#43E3E0"/>
			<stop  offset="0.33" style="stop-color:#45D5DF"/>
			<stop  offset="0.52" style="stop-color:#49BDDD"/>
			<stop  offset="0.72" style="stop-color:#4E9CDB"/>
			<stop  offset="0.93" style="stop-color:#5472D8"/>
			<stop  offset="1" style="stop-color:#5761D7"/>
		</linearGradient>
		<polygon class="st18" points="168.8,171.4 168.8,175.8 198.3,158.7 198.3,154.4 		"/>
		
			<linearGradient id="SVGID_15_" gradientUnits="userSpaceOnUse" x1="139.24" y1="106.8248" x2="168.79" y2="106.8248" gradientTransform="matrix(1 0 0 -1 0 271.8898)">
			<stop  offset="0" style="stop-color:#42E8E0"/>
			<stop  offset="0.15" style="stop-color:#43E3E0"/>
			<stop  offset="0.33" style="stop-color:#45D5DF"/>
			<stop  offset="0.52" style="stop-color:#49BDDD"/>
			<stop  offset="0.72" style="stop-color:#4E9CDB"/>
			<stop  offset="0.93" style="stop-color:#5472D8"/>
			<stop  offset="1" style="stop-color:#5761D7"/>
		</linearGradient>
		<polygon class="st19" points="139.2,154.4 139.2,158.7 168.8,175.8 168.8,171.4 		"/>
		<polygon class="st20" points="168.8,171 139.6,154.1 139.2,154.4 168.8,171.4 198.3,154.4 197.9,154.1 		"/>
		<path class="st0" d="M322.8,196.4c-0.6,0-1.1-0.1-1.6-0.4L285,175.1c-0.4-0.2-0.7-0.6-0.7-1.1c0.1-0.6,0.4-1.1,1-1.3l35.7-20.6
			c1.1-0.6,2.5-0.7,3.7-0.1l36.2,20.9c0.4,0.2,0.7,0.6,0.7,1.1c-0.1,0.6-0.4,1.1-1,1.3l-35.7,20.6
			C324.2,196.2,323.5,196.4,322.8,196.4z M321.5,195.5c1,0.4,2.1,0.4,3.1-0.1l35.7-20.6c0.4-0.3,0.7-0.6,0.7-0.9
			c0-0.3-0.2-0.5-0.4-0.6l-36.2-20.9c-1-0.4-2.1-0.4-3.1,0.1l-35.7,20.6c-0.4,0.3-0.7,0.6-0.7,0.9c0,0.3,0.2,0.5,0.4,0.6
			L321.5,195.5z"/>
		
			<linearGradient id="SVGID_16_" gradientUnits="userSpaceOnUse" x1="265.4" y1="99.8948" x2="363.88" y2="99.8948" gradientTransform="matrix(1 0 0 -1 0 271.8898)">
			<stop  offset="0" style="stop-color:#5761D7"/>
			<stop  offset="0.16" style="stop-color:#5E67DA"/>
			<stop  offset="0.41" style="stop-color:#727AE2"/>
			<stop  offset="0.69" style="stop-color:#9297EE"/>
			<stop  offset="1" style="stop-color:#BCBEFF"/>
		</linearGradient>
		<polygon class="st21" points="361.3,158.7 361.3,163.1 322.8,185.3 284.4,163.1 284.4,158.7 		"/>
		<polygon class="st10" points="322.8,180.9 284.4,158.7 322.8,136.5 361.3,158.7 		"/>
		<polygon class="st11" points="322.8,180.4 284.9,158.4 284.4,158.7 322.8,180.9 361.3,158.7 360.8,158.4 		"/>
		<polygon class="st12" points="322.8,175.8 293.3,158.7 322.8,141.6 352.4,158.7 		"/>
		
			<linearGradient id="SVGID_17_" gradientUnits="userSpaceOnUse" x1="293.27" y1="113.2048" x2="352.38" y2="113.2048" gradientTransform="matrix(1 0 0 -1 0 271.8898)">
			<stop  offset="0" style="stop-color:#42E8E0"/>
			<stop  offset="0.15" style="stop-color:#43E3E0"/>
			<stop  offset="0.33" style="stop-color:#45D5DF"/>
			<stop  offset="0.52" style="stop-color:#49BDDD"/>
			<stop  offset="0.72" style="stop-color:#4E9CDB"/>
			<stop  offset="0.93" style="stop-color:#5472D8"/>
			<stop  offset="1" style="stop-color:#5761D7"/>
		</linearGradient>
		<polygon class="st22" points="322.8,175.8 293.3,158.7 322.8,141.6 352.4,158.7 		"/>
		
			<linearGradient id="SVGID_18_" gradientUnits="userSpaceOnUse" x1="322.82" y1="123.8898" x2="352.38" y2="123.8898" gradientTransform="matrix(1 0 0 -1 0 271.8898)">
			<stop  offset="0" style="stop-color:#42E8E0"/>
			<stop  offset="0.15" style="stop-color:#43E3E0"/>
			<stop  offset="0.33" style="stop-color:#45D5DF"/>
			<stop  offset="0.52" style="stop-color:#49BDDD"/>
			<stop  offset="0.72" style="stop-color:#4E9CDB"/>
			<stop  offset="0.93" style="stop-color:#5472D8"/>
			<stop  offset="1" style="stop-color:#5761D7"/>
		</linearGradient>
		<polygon class="st23" points="322.8,137.3 352.4,154.4 352.4,158.7 322.8,141.6 		"/>
		
			<linearGradient id="SVGID_19_" gradientUnits="userSpaceOnUse" x1="293.27" y1="123.8898" x2="322.83" y2="123.8898" gradientTransform="matrix(1 0 0 -1 0 271.8898)">
			<stop  offset="0" style="stop-color:#42E8E0"/>
			<stop  offset="0.15" style="stop-color:#43E3E0"/>
			<stop  offset="0.33" style="stop-color:#45D5DF"/>
			<stop  offset="0.52" style="stop-color:#49BDDD"/>
			<stop  offset="0.72" style="stop-color:#4E9CDB"/>
			<stop  offset="0.93" style="stop-color:#5472D8"/>
			<stop  offset="1" style="stop-color:#5761D7"/>
		</linearGradient>
		<polygon class="st24" points="322.8,141.6 293.3,158.7 293.3,154.4 322.8,137.3 		"/>
		
			<linearGradient id="SVGID_20_" gradientUnits="userSpaceOnUse" x1="293.27" y1="117.5098" x2="352.38" y2="117.5098" gradientTransform="matrix(1 0 0 -1 0 271.8898)">
			<stop  offset="0" style="stop-color:#42E8E0"/>
			<stop  offset="0.15" style="stop-color:#43E3E0"/>
			<stop  offset="0.33" style="stop-color:#45D5DF"/>
			<stop  offset="0.52" style="stop-color:#49BDDD"/>
			<stop  offset="0.72" style="stop-color:#4E9CDB"/>
			<stop  offset="0.93" style="stop-color:#5472D8"/>
			<stop  offset="1" style="stop-color:#5761D7"/>
		</linearGradient>
		<polygon class="st25" points="322.8,171.4 293.3,154.4 322.8,137.3 352.4,154.4 		"/>
		<polygon class="st17" points="322.8,161.2 311,154.4 322.8,147.6 334.6,154.4 		"/>
		<polygon class="st17" points="322.8,148.2 334.1,154.7 334.6,154.4 322.8,147.6 311,154.4 311.6,154.7 		"/>
		
			<linearGradient id="SVGID_21_" gradientUnits="userSpaceOnUse" x1="322.83" y1="106.8248" x2="352.38" y2="106.8248" gradientTransform="matrix(1 0 0 -1 0 271.8898)">
			<stop  offset="0" style="stop-color:#42E8E0"/>
			<stop  offset="0.15" style="stop-color:#43E3E0"/>
			<stop  offset="0.33" style="stop-color:#45D5DF"/>
			<stop  offset="0.52" style="stop-color:#49BDDD"/>
			<stop  offset="0.72" style="stop-color:#4E9CDB"/>
			<stop  offset="0.93" style="stop-color:#5472D8"/>
			<stop  offset="1" style="stop-color:#5761D7"/>
		</linearGradient>
		<polygon class="st26" points="322.8,171.4 322.8,175.8 352.4,158.7 352.4,154.4 		"/>
		
			<linearGradient id="SVGID_22_" gradientUnits="userSpaceOnUse" x1="293.27" y1="106.8248" x2="322.83" y2="106.8248" gradientTransform="matrix(1 0 0 -1 0 271.8898)">
			<stop  offset="0" style="stop-color:#42E8E0"/>
			<stop  offset="0.15" style="stop-color:#43E3E0"/>
			<stop  offset="0.33" style="stop-color:#45D5DF"/>
			<stop  offset="0.52" style="stop-color:#49BDDD"/>
			<stop  offset="0.72" style="stop-color:#4E9CDB"/>
			<stop  offset="0.93" style="stop-color:#5472D8"/>
			<stop  offset="1" style="stop-color:#5761D7"/>
		</linearGradient>
		<polygon class="st27" points="293.3,154.4 293.3,158.7 322.8,175.8 322.8,171.4 		"/>
		<polygon class="st20" points="322.8,171 293.7,154.1 293.3,154.4 322.8,171.4 352.4,154.4 352,154.1 		"/>
		<polygon class="st10" points="245.9,108.3 177.6,68.9 245.9,29.5 314.2,68.9 		"/>
		<polygon class="st28" points="245.9,104.8 183.8,68.9 245.9,33 308,68.9 		"/>
		<path class="st0" d="M245.9,270.9c-1.1,0-2.1-0.3-3-0.8l-83.7-48.3c-0.6-0.3-0.9-0.9-0.9-1.6c0-0.6,0.3-1.2,0.9-1.5l86.7-50.1
			l89.4,51.6L249,270.1C248.1,270.6,247,270.9,245.9,270.9z M243.1,269.5c1.7,1,3.8,1,5.4,0l85.4-49.3l-88-50.8l-86.4,49.9
			c-0.4,0.2-0.6,0.6-0.6,1c0,0.4,0.2,0.8,0.6,1L243.1,269.5z"/>
		<polygon class="st11" points="245.9,259.7 177.6,220.2 245.9,180.8 314.2,220.3 		"/>
		
			<linearGradient id="SVGID_23_" gradientUnits="userSpaceOnUse" x1="280.05" y1="54.8298" x2="280.05" y2="198.9498" gradientTransform="matrix(1 0 0 -1 0 271.8898)">
			<stop  offset="0" style="stop-color:#C0BFF6"/>
			<stop  offset="0.29" style="stop-color:#C5C4F7"/>
			<stop  offset="0.64" style="stop-color:#D3D2F9"/>
			<stop  offset="1" style="stop-color:#E9E9FD"/>
		</linearGradient>
		<polygon class="st29" points="314.2,68.9 314.2,220.3 245.9,259.7 245.9,108.3 		"/>
		<polygon class="st30" points="177.6,68.9 177.6,220.2 245.9,259.7 245.9,108.3 		"/>
		<g class="st31">
			<polygon class="st32" points="182.2,78.9 182.2,215 241.3,249.1 241.3,113 			"/>
		</g>
		<polygon class="st32" points="303.9,105.5 303.9,109.5 256.1,137.1 256.1,133.1 		"/>
		<polygon class="st32" points="303.9,122.4 303.9,126.4 256.1,154 256.1,150 		"/>
		<polygon class="st32" points="303.9,139.3 303.9,143.3 256.1,170.9 256.1,166.9 		"/>
		<polygon class="st32" points="303.9,156.2 303.9,160.2 256.1,187.8 256.1,183.8 		"/>
		<polygon class="st32" points="303.9,173.1 303.9,177.1 256.1,204.7 256.1,200.7 		"/>
		<polygon class="st32" points="303.9,190 303.9,194 256.1,221.6 256.1,217.6 		"/>
		<polygon class="st11" points="245.9,107 178.7,68.2 177.6,68.9 245.9,108.3 314.2,68.9 313.1,68.2 		"/>
		<g class="st31">
			<polygon class="st32" points="177.6,196.3 245.9,155.1 245.9,108.3 177.6,68.9 			"/>
		</g>
		<polygon class="st33" points="189.3,127.1 197.8,132 197.8,130.5 189.3,125.6 		"/>
		<polygon class="st33" points="199.2,132.8 203.8,135.5 203.8,134 199.2,131.3 		"/>
		<polygon class="st33" points="211,139.6 214.3,141.6 214.4,140.1 211,138.2 		"/>
		<polygon class="st33" points="208.6,138.2 209.7,138.9 209.7,137.4 208.6,136.8 		"/>
		<polygon class="st33" points="205.2,136.3 207.3,137.5 207.3,136 205.2,134.8 		"/>
		<polygon class="st33" points="197.2,138.4 200.5,140.3 200.5,138.9 197.2,136.9 		"/>
		<polygon class="st33" points="189.3,133.9 195.9,137.6 195.9,136.2 189.3,132.4 		"/>
		<polygon class="st33" points="201.5,157.8 208.1,161.5 208.1,160.1 201.5,156.3 		"/>
		<polygon class="st33" points="198.2,155.8 200.2,157 200.2,155.5 198.2,154.3 		"/>
		<polygon class="st33" points="201.5,151 208.1,154.8 208.1,153.3 201.5,149.5 		"/>
		<polygon class="st33" points="198.1,149.1 200.2,150.3 200.2,148.8 198.1,147.6 		"/>
		<polygon class="st33" points="201.6,186.9 189.2,179.7 189.2,181.2 201.6,188.3 		"/>
		<polygon class="st33" points="205.9,189.4 202.9,187.6 202.9,189.1 205.9,190.9 		"/>
		<polygon class="st33" points="226,190.8 213.6,183.7 213.6,185.1 226,192.3 		"/>
		<polygon class="st33" points="230.3,193.3 227.3,191.6 227.3,193 230.3,194.8 		"/>
		<polygon class="st33" points="192.6,178.3 189.2,176.4 189.2,177.8 192.6,179.8 		"/>
		<polygon class="st33" points="211.8,182.7 208.5,180.7 208.5,182.2 211.8,184.1 		"/>
		<polygon class="st33" points="200.4,182.8 193.9,179 193.9,180.5 200.4,184.3 		"/>
		<polygon class="st33" points="203.8,184.8 201.7,183.6 201.7,185.1 203.8,186.3 		"/>
		<polygon class="st33" points="211.7,189.4 205.2,185.6 205.2,187 211.7,190.8 		"/>
		<polygon class="st33" points="215.1,191.3 213,190.1 213,191.6 215.1,192.8 		"/>
		<polygon class="st33" points="211.8,186 208.5,184.1 208.5,185.6 211.8,187.5 		"/>
		<polygon class="st33" points="219.7,190.6 213.1,186.8 213.1,188.3 219.7,192.1 		"/>
		<polygon class="st33" points="223.1,192.5 221,191.3 221,192.8 223.1,194 		"/>
		<polygon class="st33" points="196.1,176.9 189.2,173 189.2,174.5 196.1,178.4 		"/>
		<polygon class="st33" points="202.3,180.6 197.4,177.7 197.4,179.2 202.3,182 		"/>
		<polygon class="st33" points="207,183.3 203.6,181.3 203.6,182.8 207,184.7 		"/>
		<polygon class="st33" points="229.6,153.8 236.5,157.7 236.5,156.2 229.6,152.3 		"/>
		<polygon class="st33" points="223.4,150.1 228.4,153 228.4,151.5 223.4,148.7 		"/>
		<polygon class="st33" points="218.7,147.5 222.1,149.4 222.1,147.9 218.7,146 		"/>
		<polygon class="st33" points="226.8,148.7 233.7,152.7 233.7,151.2 226.8,147.3 		"/>
		<polygon class="st33" points="220.6,145.1 225.5,148 225.5,146.5 220.6,143.6 		"/>
		<polygon class="st33" points="215.9,142.4 219.3,144.4 219.3,142.9 215.9,141 		"/>
		<polygon class="st33" points="202.5,155 204.8,156.3 204.8,154.8 202.5,153.5 		"/>
		<polygon class="st33" points="198.2,152.4 201.2,154.2 201.2,152.7 198.2,151 		"/>
		<polygon class="st33" points="196.1,173.6 189.3,169.6 189.3,171.1 196.1,175.1 		"/>
		<polygon class="st33" points="202.4,177.2 197.4,174.4 197.4,175.8 202.4,178.7 		"/>
		<polygon class="st33" points="207,179.9 203.7,178 203.7,179.4 207,181.4 		"/>
		<polygon class="st33" points="191.6,167.6 189.3,166.3 189.3,167.8 191.6,169.1 		"/>
		<polygon class="st33" points="195.9,170.1 192.9,168.4 192.9,169.8 195.9,171.6 		"/>
		<polygon class="st33" points="202.2,173.7 197.2,170.9 197.2,172.4 202.2,175.2 		"/>
		<polygon class="st33" points="204,145.7 206.3,147 206.3,145.5 204,144.2 		"/>
		<polygon class="st33" points="199.6,143.2 202.7,144.9 202.7,143.4 199.6,141.7 		"/>
		<polygon class="st33" points="193.4,139.6 198.3,142.4 198.3,140.9 193.4,138.1 		"/>
		<polygon class="st33" points="208,151.1 212.9,154 213,152.5 208,149.7 		"/>
		<polygon class="st33" points="200,146.8 206.6,150.6 206.6,149.1 200,145.3 		"/>
		<polygon class="st33" points="196.6,144.8 198.7,146 198.7,144.5 196.6,143.3 		"/>
		<polygon class="st33" points="193.4,142.9 195.5,144.1 195.5,142.7 193.4,141.4 		"/>
		<polygon class="st33" points="196.7,162 203.3,165.8 203.3,164.3 196.7,160.5 		"/>
		<polygon class="st33" points="193.3,160 195.4,161.2 195.4,159.7 193.3,158.5 		"/>
		<polygon class="st33" points="197.7,165.9 200,167.3 200,165.8 197.7,164.4 		"/>
		<polygon class="st33" points="204.8,163.2 207.1,164.6 207.1,163.1 204.8,161.8 		"/>
		<polygon class="st33" points="208.1,165.1 213.6,168.3 213.6,166.9 208.1,163.7 		"/>
		<polygon class="st33" points="214.6,168.9 217.9,170.8 217.9,169.3 214.6,167.4 		"/>
		<polygon class="st33" points="193.4,163.4 196.4,165.2 196.4,163.7 193.4,161.9 		"/>
		<polygon class="st33" points="193.6,166.9 195.9,168.2 195.9,166.7 193.6,165.4 		"/>
		<polygon class="st33" points="189.3,164.4 192.3,166.1 192.3,164.6 189.3,162.9 		"/>
		<polygon class="st33" points="201.4,161.3 203.5,162.5 203.5,161 201.4,159.8 		"/>
		<polygon class="st33" points="198.2,159.4 200.2,160.6 200.2,159.1 198.2,157.9 		"/>
		<polygon class="st33" points="210.1,142.5 217.2,146.6 217.2,145.1 210.1,141 		"/>
		<polygon class="st33" points="202.2,137.9 208.8,141.7 208.8,140.3 202.2,136.4 		"/>
		<polygon class="st33" points="198.8,135.9 200.9,137.1 200.9,135.7 198.8,134.5 		"/>
		<polygon class="st33" points="195.6,134.1 197.6,135.3 197.6,133.8 195.6,132.6 		"/>
		<polygon class="st33" points="193.8,133.1 189.3,130.5 189.3,129 193.8,131.6 		"/>
		<polygon class="st10" points="245.9,78.9 177.6,39.4 245.9,0 314.2,39.4 		"/>
		<polygon class="st32" points="245.9,68.1 196.3,39.4 245.9,10.8 295.5,39.4 		"/>
		<polygon class="st11" points="245.9,12.7 293.9,40.4 295.5,39.4 245.9,10.8 196.3,39.4 197.9,40.4 		"/>
		
			<linearGradient id="SVGID_24_" gradientUnits="userSpaceOnUse" x1="280.05" y1="184.4798" x2="280.05" y2="231.1498" gradientTransform="matrix(1 0 0 -1 0 271.8898)">
			<stop  offset="0" style="stop-color:#C0BFF6"/>
			<stop  offset="0.29" style="stop-color:#C5C4F7"/>
			<stop  offset="0.64" style="stop-color:#D3D2F9"/>
			<stop  offset="1" style="stop-color:#E9E9FD"/>
		</linearGradient>
		<polygon class="st34" points="314.2,39.4 314.2,61.8 245.9,101.2 245.9,78.9 		"/>
		<polygon class="st30" points="177.6,39.4 177.6,61.8 245.9,101.2 245.9,78.9 		"/>
		<g class="st31">
			<polygon class="st32" points="182.2,49.5 182.2,56.5 241.3,90.6 241.3,83.6 			"/>
		</g>
		<polygon class="st11" points="245.9,77.6 178.7,38.8 177.6,39.4 245.9,78.9 314.2,39.4 313.1,38.8 		"/>
		<polygon class="st32" points="303.9,55.1 303.9,59.1 256.1,86.7 256.1,82.7 		"/>
		<polygon class="st35" points="177.6,39.4 177.6,61.8 245.9,101.2 245.9,78.9 		"/>
		<polygon class="st33" points="226,77.7 213.6,70.5 213.6,72 226,79.1 		"/>
		<polygon class="st33" points="211.8,69.5 208.5,67.6 208.5,69.1 211.8,71 		"/>
		<polygon class="st33" points="196.1,60.5 189.3,56.5 189.3,58 196.1,61.9 		"/>
		<polygon class="st33" points="202.4,64.1 197.4,61.2 197.4,62.7 202.4,65.5 		"/>
		<polygon class="st33" points="207,66.7 203.7,64.8 203.7,66.3 207,68.2 		"/>
		<polygon class="st33" points="246,20.6 243.8,19.4 246,18.1 248.1,19.4 		"/>
		<polygon class="st36" points="250.3,23.1 248.1,21.9 250.3,20.6 252.5,21.9 		"/>
		<polygon class="st37" points="254.6,25.6 252.5,24.4 254.6,23.1 256.8,24.4 		"/>
		<polygon class="st33" points="259,28.1 256.8,26.9 259,25.6 261.1,26.9 		"/>
		<polygon class="st37" points="263.3,30.6 261.1,29.4 263.3,28.1 265.5,29.4 		"/>
		<polygon class="st33" points="267.7,33.1 265.5,31.9 267.7,30.6 269.8,31.9 		"/>
		<polygon class="st33" points="272,35.6 269.8,34.4 272,33.1 274.2,34.4 		"/>
		<polygon class="st33" points="276.3,38.1 274.2,36.9 276.3,35.6 278.5,36.9 		"/>
		<polygon class="st36" points="280.7,40.6 278.5,39.4 280.7,38.1 282.8,39.4 		"/>
		<polygon class="st33" points="241.6,23.1 239.4,21.9 241.6,20.6 243.8,21.9 		"/>
		<polygon class="st33" points="246,25.6 243.8,24.4 246,23.1 248.1,24.4 		"/>
		<polygon class="st33" points="250.3,28.1 248.1,26.9 250.3,25.6 252.5,26.9 		"/>
		<polygon class="st33" points="254.6,30.6 252.5,29.4 254.6,28.1 256.8,29.4 		"/>
		<polygon class="st33" points="259,33.1 256.8,31.9 259,30.6 261.1,31.9 		"/>
		<polygon class="st33" points="263.3,35.6 261.1,34.4 263.3,33.1 265.5,34.4 		"/>
		<polygon class="st33" points="267.6,38.1 265.5,36.9 267.6,35.6 269.8,36.9 		"/>
		<polygon class="st33" points="272,40.6 269.8,39.4 272,38.1 274.1,39.4 		"/>
		<polygon class="st33" points="276.3,43.2 274.1,41.9 276.3,40.6 278.5,41.9 		"/>
		<polygon class="st33" points="237.3,25.6 235.1,24.4 237.3,23.1 239.4,24.4 		"/>
		<polygon class="st33" points="241.6,28.1 239.4,26.9 241.6,25.6 243.8,26.9 		"/>
		<polygon class="st33" points="245.9,30.6 243.8,29.4 245.9,28.1 248.1,29.4 		"/>
		<polygon class="st36" points="250.3,33.1 248.1,31.9 250.3,30.6 252.4,31.9 		"/>
		<polygon class="st37" points="254.6,35.6 252.4,34.4 254.6,33.1 256.8,34.4 		"/>
		<polygon class="st37" points="258.9,38.2 256.8,36.9 258.9,35.6 261.1,36.9 		"/>
		<polygon class="st33" points="263.3,40.7 261.1,39.4 263.3,38.2 265.5,39.4 		"/>
		<polygon class="st33" points="267.6,43.2 265.5,41.9 267.6,40.7 269.8,41.9 		"/>
		<polygon class="st33" points="272,45.7 269.8,44.4 272,43.2 274.1,44.4 		"/>
		<polygon class="st37" points="232.9,28.1 230.7,26.9 232.9,25.6 235.1,26.9 		"/>
		<polygon class="st37" points="237.2,30.7 235.1,29.4 237.2,28.1 239.4,29.4 		"/>
		<polygon class="st36" points="241.6,33.2 239.4,31.9 241.6,30.7 243.8,31.9 		"/>
		<polygon class="st33" points="245.9,35.7 243.8,34.4 245.9,33.2 248.1,34.4 		"/>
		<polygon class="st33" points="250.3,38.2 248.1,36.9 250.3,35.7 252.4,36.9 		"/>
		<polygon class="st33" points="254.6,40.7 252.4,39.4 254.6,38.2 256.8,39.4 		"/>
		<polygon class="st37" points="258.9,43.2 256.8,41.9 258.9,40.7 261.1,41.9 		"/>
		<polygon class="st33" points="263.3,45.7 261.1,44.4 263.3,43.2 265.4,44.4 		"/>
		<polygon class="st33" points="267.6,48.2 265.4,46.9 267.6,45.7 269.8,46.9 		"/>
		<polygon class="st33" points="228.5,30.7 226.4,29.4 228.5,28.2 230.7,29.4 		"/>
		<polygon class="st33" points="232.9,33.2 230.7,31.9 232.9,30.7 235.1,31.9 		"/>
		<polygon class="st33" points="237.2,35.7 235.1,34.4 237.2,33.2 239.4,34.4 		"/>
		<polygon class="st33" points="241.6,38.2 239.4,36.9 241.6,35.7 243.7,36.9 		"/>
		<polygon class="st33" points="245.9,40.7 243.7,39.4 245.9,38.2 248.1,39.4 		"/>
		<polygon class="st33" points="250.2,43.2 248.1,41.9 250.2,40.7 252.4,41.9 		"/>
		<polygon class="st33" points="254.6,45.7 252.4,44.4 254.6,43.2 256.8,44.4 		"/>
		<polygon class="st33" points="258.9,48.2 256.8,46.9 258.9,45.7 261.1,46.9 		"/>
		<polygon class="st33" points="263.3,50.7 261.1,49.4 263.3,48.2 265.4,49.4 		"/>
		<polygon class="st33" points="224.2,33.2 222,31.9 224.2,30.7 226.4,31.9 		"/>
		<polygon class="st33" points="228.5,35.7 226.4,34.4 228.5,33.2 230.7,34.4 		"/>
		<polygon class="st37" points="232.9,38.2 230.7,36.9 232.9,35.7 235,36.9 		"/>
		<polygon class="st33" points="237.2,40.7 235,39.4 237.2,38.2 239.4,39.4 		"/>
		<polygon class="st36" points="241.5,43.2 239.4,41.9 241.5,40.7 243.7,41.9 		"/>
		<polygon class="st33" points="245.9,45.7 243.7,44.4 245.9,43.2 248,44.4 		"/>
		<polygon class="st33" points="250.2,48.2 248,46.9 250.2,45.7 252.4,46.9 		"/>
		<polygon class="st33" points="254.6,50.7 252.4,49.5 254.6,48.2 256.7,49.5 		"/>
		<polygon class="st33" points="258.9,53.2 256.7,52 258.9,50.7 261.1,52 		"/>
		<polygon class="st33" points="219.8,35.7 217.7,34.4 219.8,33.2 222,34.4 		"/>
		<polygon class="st33" points="224.2,38.2 222,36.9 224.2,35.7 226.4,36.9 		"/>
		<polygon class="st37" points="228.5,40.7 226.4,39.4 228.5,38.2 230.7,39.4 		"/>
		<polygon class="st33" points="232.9,43.2 230.7,41.9 232.9,40.7 235,41.9 		"/>
		<polygon class="st33" points="237.2,45.7 235,44.5 237.2,43.2 239.4,44.5 		"/>
		<polygon class="st36" points="241.5,48.2 239.4,47 241.5,45.7 243.7,47 		"/>
		<polygon class="st37" points="245.9,50.7 243.7,49.5 245.9,48.2 248,49.5 		"/>
		<polygon class="st33" points="250.2,53.2 248,52 250.2,50.7 252.4,52 		"/>
		<polygon class="st36" points="254.5,55.7 252.4,54.5 254.5,53.2 256.7,54.5 		"/>
		<polygon class="st33" points="215.5,38.2 213.3,37 215.5,35.7 217.7,37 		"/>
		<polygon class="st37" points="219.8,40.7 217.7,39.5 219.8,38.2 222,39.5 		"/>
		<polygon class="st33" points="224.2,43.2 222,42 224.2,40.7 226.3,42 		"/>
		<polygon class="st33" points="228.5,45.7 226.3,44.5 228.5,43.2 230.7,44.5 		"/>
		<polygon class="st33" points="232.8,48.2 230.7,47 232.8,45.7 235,47 		"/>
		<polygon class="st33" points="237.2,50.7 235,49.5 237.2,48.2 239.3,49.5 		"/>
		<polygon class="st33" points="241.5,53.2 239.3,52 241.5,50.7 243.7,52 		"/>
		<polygon class="st37" points="245.9,55.7 243.7,54.5 245.9,53.2 248,54.5 		"/>
		<polygon class="st33" points="250.2,58.2 248,57 250.2,55.7 252.4,57 		"/>
		<polygon class="st33" points="211.1,40.7 209,39.5 211.1,38.2 213.3,39.5 		"/>
		<polygon class="st36" points="215.5,43.2 213.3,42 215.5,40.7 217.6,42 		"/>
		<polygon class="st33" points="219.8,45.7 217.6,44.5 219.8,43.2 222,44.5 		"/>
		<polygon class="st33" points="224.1,48.2 222,47 224.1,45.7 226.3,47 		"/>
		<polygon class="st33" points="228.5,50.7 226.3,49.5 228.5,48.2 230.6,49.5 		"/>
		<polygon class="st33" points="232.8,53.2 230.6,52 232.8,50.7 235,52 		"/>
		<polygon class="st37" points="237.2,55.7 235,54.5 237.2,53.2 239.3,54.5 		"/>
		<polygon class="st33" points="241.5,58.2 239.3,57 241.5,55.7 243.7,57 		"/>
		<polygon class="st33" points="245.8,60.8 243.7,59.5 245.8,58.2 248,59.5 		"/>
		<path class="st0" d="M50.3,225.4c-1.1,0-2.1-0.3-3-0.8L13,204.7c-0.8-0.4-1.1-1.5-0.7-2.3c0.2-0.3,0.4-0.5,0.7-0.7l62.3-36
			l0.5,0.3l36.9,21.3c0.8,0.5,1.1,1.5,0.7,2.3c-0.2,0.3-0.4,0.5-0.7,0.7l-59.3,34.3C52.4,225.1,51.4,225.4,50.3,225.4z M75.3,166.6
			l-62,35.8c-0.3,0.2-0.5,0.5-0.5,0.9c0,0.4,0.2,0.7,0.5,0.9L47.6,224c1.6,0.9,3.6,0.9,5.3,0l59.3-34.3c0.5-0.3,0.7-1,0.4-1.5
			c-0.1-0.2-0.2-0.3-0.4-0.4L75.3,166.6z"/>
		
			<linearGradient id="SVGID_25_" gradientUnits="userSpaceOnUse" x1="2302.7776" y1="40.0228" x2="2379.0127" y2="40.0228" gradientTransform="matrix(1 0 0 -1 -2303.6399 187.3298)">
			<stop  offset="0" style="stop-color:#C0BFF6"/>
			<stop  offset="0.29" style="stop-color:#C5C4F7"/>
			<stop  offset="0.64" style="stop-color:#D3D2F9"/>
			<stop  offset="1" style="stop-color:#E9E9FD"/>
		</linearGradient>
		<path class="st38" d="M75.4,152l-8.3-49l0.7-0.3l-1-0.6l0,0c-0.2-0.1-0.5-0.1-0.8,0.1L0,140.4c-0.6,0.4-0.9,1-0.9,1.7l8.3,49.4
			c0,0.2,0.1,0.4,0.3,0.5l0,0l1,0.6l0.2-0.9H8.9l65.7-37.9C75.1,153.3,75.4,152.7,75.4,152z"/>
		
			<linearGradient id="SVGID_26_" gradientUnits="userSpaceOnUse" x1="2302.7217" y1="20.4698" x2="2315.8218" y2="20.4698" gradientTransform="matrix(1 0 0 -1 -2303.6399 187.3298)">
			<stop  offset="0" style="stop-color:#5761D7"/>
			<stop  offset="0.18" style="stop-color:#5C66D9"/>
			<stop  offset="0.39" style="stop-color:#6A73DF"/>
			<stop  offset="0.61" style="stop-color:#8289E8"/>
			<stop  offset="0.85" style="stop-color:#A3A7F5"/>
			<stop  offset="1" style="stop-color:#BCBEFF"/>
		</linearGradient>
		<path class="st39" d="M0.3,141.7l-1.1-0.5c-0.1,0.3-0.2,0.5-0.1,0.8l8.3,49.4c0,0.2,0.1,0.4,0.3,0.5l0,0l1,0.6l0.2-0.9H8.9
			l3.3-1.9L0.3,141.7z"/>
		<path class="st30" d="M75.6,154.3L9.5,192.4c-0.5,0.3-1,0.1-1-0.4l-8.4-49.4c0-0.7,0.3-1.3,0.9-1.7l66.1-38.1
			c0.5-0.3,0.9-0.1,1,0.4l8.3,49.4C76.4,153.3,76.1,153.9,75.6,154.3z"/>
		<g class="st31">
			<polygon class="st32" points="66.2,106 2.5,142.7 10.4,189.3 74,152.5 			"/>
		</g>
		
			<linearGradient id="SVGID_27_" gradientUnits="userSpaceOnUse" x1="2312.9399" y1="-1.5484" x2="2420.71" y2="-1.5484" gradientTransform="matrix(1 0 0 -1 -2303.6399 187.3298)">
			<stop  offset="0" style="stop-color:#5761D7"/>
			<stop  offset="0.18" style="stop-color:#5C66D9"/>
			<stop  offset="0.39" style="stop-color:#6A73DF"/>
			<stop  offset="0.61" style="stop-color:#8289E8"/>
			<stop  offset="0.85" style="stop-color:#A3A7F5"/>
			<stop  offset="1" style="stop-color:#BCBEFF"/>
		</linearGradient>
		<path class="st40" d="M117.1,177.7l-3.6,1.9l-36.1-20.9c-0.8-0.3-1.6-0.3-2.4,0.1l-62.3,36c-0.6-0.3-3.3-1.6-3.3-1.6l1.3,3.4l0,0
			c0.1,0.2,0.2,0.3,0.4,0.4l38.1,22c0.8,0.3,1.6,0.3,2.3-0.1l63.8-36.8c0.2-0.1,0.4-0.3,0.5-0.6l0,0L117.1,177.7z"/>
		
			<linearGradient id="SVGID_28_" gradientUnits="userSpaceOnUse" x1="2349.1501" y1="2.0598" x2="2456.9514" y2="2.0598" gradientTransform="matrix(1 0 0 -1 -2303.6399 187.3298)">
			<stop  offset="0" style="stop-color:#C0BFF6"/>
			<stop  offset="0.29" style="stop-color:#C5C4F7"/>
			<stop  offset="0.64" style="stop-color:#D3D2F9"/>
			<stop  offset="1" style="stop-color:#E9E9FD"/>
		</linearGradient>
		<path class="st41" d="M116.5,178.3L51.1,216c-0.7,0.4-1.6,0.5-2.4,0.1l-39-22.5c-0.6-0.4-0.5-1,0.2-1.4l65.4-37.7
			c0.7-0.4,1.6-0.5,2.4-0.1l39,22.5C117.3,177.3,117.2,177.9,116.5,178.3z"/>
		<path class="st11" d="M116.5,177.9l-65.4,37.8c-0.7,0.4-1.6,0.4-2.4,0.1l-39-22.5c-0.2-0.1-0.3-0.2-0.4-0.4
			c-0.1,0.3,0.1,0.7,0.4,0.8l39,22.5c0.8,0.4,1.7,0.3,2.4-0.1l65.4-37.7c0.5-0.3,0.7-0.6,0.6-1C117,177.6,116.8,177.8,116.5,177.9z"
			/>
		<path class="st42" d="M31.4,207.9v-0.7c0-0.1,0-0.1,0.1-0.1l2.5,1.5c0.1,0,0.1,0.1,0.1,0.2v0.7c0,0.1,0,0.1-0.1,0.1l-2.5-1.5
			C31.4,208,31.4,208,31.4,207.9z"/>
		<path class="st42" d="M35.2,210.1v-0.7c0,0,0-0.1,0.1-0.1c0,0,0,0,0,0l2.5,1.5c0.1,0,0.1,0.1,0.1,0.2v0.7c0,0.1,0,0.1-0.1,0.1
			l-2.5-1.5C35.2,210.2,35.2,210.1,35.2,210.1z"/>
		<path class="st43" d="M19.9,191.5l54.3-31.4c0.4-0.2,0.8-0.2,1.2,0l19.4,11.2c0.2,0.1,0.3,0.4,0.2,0.6c0,0.1-0.1,0.1-0.2,0.2
			l-54.3,31.4c-0.4,0.2-0.8,0.2-1.2,0l-19.4-11.2c-0.2-0.1-0.3-0.4-0.2-0.6C19.7,191.6,19.8,191.6,19.9,191.5z"/>
		<path class="st44" d="M19.9,192.2l0.2,0.1l54.1-31.3c0.4-0.2,0.8-0.2,1.2,0l19.1,11.1l0.2-0.1c0.2-0.1,0.3-0.4,0.2-0.6
			c0-0.1-0.1-0.1-0.2-0.2l-19.4-11.2c-0.4-0.2-0.8-0.2-1.2,0l-54.3,31.4c-0.2,0.1-0.3,0.4-0.2,0.6C19.7,192.1,19.8,192.2,19.9,192.2
			z"/>
		<polygon class="st30" points="76.8,163 29.6,190.2 27.5,189 74.7,161.8 		"/>
		<polygon class="st30" points="82,166 37.7,191.5 35.6,190.3 79.9,164.8 		"/>
		<polygon class="st30" points="85.3,167.9 33.2,198 31.1,196.8 83.2,166.7 		"/>
		<polygon class="st30" points="88.7,169.8 36.6,199.9 34.5,198.7 86.6,168.6 		"/>
		<polygon class="st30" points="92,171.8 39.9,201.9 37.8,200.6 89.9,170.6 		"/>
		<polygon class="st30" points="26.8,191.9 24.7,193.1 22.6,191.9 24.7,190.7 		"/>
		<polygon class="st30" points="34.2,193.6 29.8,196.1 27.7,194.9 32.1,192.3 		"/>
		
			<linearGradient id="SVGID_29_" gradientUnits="userSpaceOnUse" x1="2367.4119" y1="-4.0615" x2="2395.0149" y2="-4.0615" gradientTransform="matrix(1 0 0 -1 -2303.6399 187.3298)">
			<stop  offset="0" style="stop-color:#C0BFF6"/>
			<stop  offset="0.29" style="stop-color:#C5C4F7"/>
			<stop  offset="0.64" style="stop-color:#D3D2F9"/>
			<stop  offset="1" style="stop-color:#E9E9FD"/>
		</linearGradient>
		<path class="st45" d="M76.3,199.1l14.6-8.5c0.6-0.3,0.6-0.9,0-1.2l-10-5.8c-0.7-0.3-1.4-0.3-2.1,0l-14.7,8.5
			c-0.3,0.1-0.5,0.5-0.4,0.8c0.1,0.2,0.2,0.3,0.4,0.4l10,5.8C74.9,199.4,75.6,199.4,76.3,199.1z"/>
		<path class="st44" d="M64.2,192.6l14.6-8.5c0.7-0.3,1.4-0.3,2.1,0l10,5.8c0.1,0.1,0.3,0.2,0.4,0.4c0.1-0.3,0-0.6-0.4-0.9l-10-5.8
			c-0.7-0.3-1.4-0.3-2.1,0l-14.7,8.5c-0.4,0.2-0.5,0.5-0.4,0.8C63.9,192.8,64.1,192.7,64.2,192.6z"/>
		<g class="st46">
			<g>
				<defs>
					<polygon id="SVGID_30_" points="66.2,106 2.5,142.7 10.4,189.3 74,152.5 					"/>
				</defs>
				<clipPath id="SVGID_31_">
					<use xlink:href="#SVGID_30_"  style="overflow:visible;"/>
				</clipPath>
				<g class="st47">
					
						<linearGradient id="SVGID_32_" gradientUnits="userSpaceOnUse" x1="2307.9602" y1="25.9589" x2="2415.782" y2="25.9589" gradientTransform="matrix(1 0 0 -1 -2303.6399 187.3298)">
						<stop  offset="0" style="stop-color:#C0BFF6"/>
						<stop  offset="0.29" style="stop-color:#C5C4F7"/>
						<stop  offset="0.64" style="stop-color:#D3D2F9"/>
						<stop  offset="1" style="stop-color:#E9E9FD"/>
					</linearGradient>
					<path class="st48" d="M75.3,154.4L9.9,192.2c-0.7,0.4-1.6,0.4-2.4,0.1l-39-22.5c-0.6-0.4-0.5-1,0.2-1.4l65.4-37.7
						c0.7-0.4,1.6-0.5,2.4-0.1l39,22.5C76.1,153.4,76,154,75.3,154.4z"/>
					
						<linearGradient id="SVGID_33_" gradientUnits="userSpaceOnUse" x1="2300.8823" y1="33.8698" x2="2328.468" y2="33.8698" gradientTransform="matrix(1 0 0 -1 -2303.6399 187.3298)">
						<stop  offset="0" style="stop-color:#C0BFF6"/>
						<stop  offset="0.29" style="stop-color:#C5C4F7"/>
						<stop  offset="0.64" style="stop-color:#D3D2F9"/>
						<stop  offset="1" style="stop-color:#E9E9FD"/>
					</linearGradient>
					<path class="st49" d="M9.7,161.2l14.7-8.5c0.3-0.1,0.5-0.5,0.4-0.8c-0.1-0.2-0.2-0.3-0.4-0.4l-10-5.8c-0.7-0.3-1.4-0.3-2.1,0
						l-14.7,8.4c-0.6,0.3-0.6,0.9,0,1.2l10,5.8C8.3,161.5,9.1,161.5,9.7,161.2z"/>
					<path class="st44" d="M-2.4,154.7l14.6-8.4c0.7-0.3,1.4-0.3,2.1,0l10,5.8c0.1,0.1,0.3,0.2,0.4,0.4c0.2-0.3,0-0.6-0.4-0.8
						l-10-5.8c-0.7-0.3-1.4-0.3-2.1,0l-14.7,8.4c-0.4,0.2-0.5,0.6-0.4,0.9C-2.6,154.9-2.5,154.8-2.4,154.7z"/>
					<path class="st43" d="M-8.8,174.4l54.3-31.4c0.4-0.2,0.8-0.2,1.2,0l19.3,11.2c0.2,0.1,0.3,0.4,0.2,0.6c0,0.1-0.1,0.1-0.2,0.2
						l-54.3,31.3c-0.4,0.2-0.8,0.2-1.2,0l-19.4-11.2C-9,175-9,174.7-8.8,174.4C-8.9,174.5-8.8,174.5-8.8,174.4z"/>
					<path class="st44" d="M-8.8,175.1l0.2,0.1L45.5,144c0.4-0.2,0.8-0.2,1.2,0L65.9,155l0.2-0.1c0.2-0.1,0.3-0.4,0.2-0.6
						c0-0.1-0.1-0.1-0.2-0.2L46.7,143c-0.4-0.2-0.8-0.2-1.2,0l-54.3,31.4C-9,174.6-9,174.8-8.8,175.1
						C-8.9,175.1-8.8,175.1-8.8,175.1z"/>
					<polygon class="st30" points="61,153.5 13.7,180.8 15.5,181.9 62.9,154.5 					"/>
					<polygon class="st30" points="56,150.6 11,176.6 12.9,177.6 57.9,151.7 					"/>
					<polygon class="st30" points="7.7,178.5 3.5,180.9 5.3,182 9.5,179.6 					"/>
					<polygon class="st30" points="11.4,182.1 8.5,183.8 10.3,184.9 13.3,183.2 					"/>
					<polygon class="st30" points="52.9,148.8 0.3,179.1 2.2,180.2 54.8,149.9 					"/>
					<polygon class="st30" points="49.8,147 -2.8,177.3 -0.9,178.4 51.6,148.1 					"/>
					<polygon class="st30" points="46.6,145.2 -5.9,175.5 -4,176.6 48.5,146.3 					"/>
				</g>
			</g>
		</g>
		<polygon class="st33" points="26.5,171.5 31.6,168.6 31.8,169.4 26.6,172.4 		"/>
		<polygon class="st33" points="32.5,168.1 35.3,166.4 35.4,167.3 32.6,169 		"/>
		<polygon class="st33" points="39.6,163.9 41.7,162.8 41.8,163.6 39.8,164.8 		"/>
		<polygon class="st33" points="38.2,164.8 38.9,164.4 39,165.3 38.3,165.7 		"/>
		<polygon class="st33" points="36.1,166 37.4,165.2 37.5,166.1 36.3,166.9 		"/>
		<polygon class="st33" points="30.6,164.7 32.6,163.5 32.7,164.4 30.7,165.6 		"/>
		<polygon class="st33" points="25.8,167.4 29.8,165.1 29.9,166 26,168.3 		"/>
		<polygon class="st33" points="31.5,152.9 35.5,150.6 35.6,151.5 31.7,153.8 		"/>
		<polygon class="st33" points="29.5,154.1 30.7,153.4 30.9,154.3 29.6,155 		"/>
		<polygon class="st33" points="32.2,157 36.1,154.7 36.3,155.6 32.3,157.9 		"/>
		<polygon class="st33" points="30.1,158.2 31.4,157.5 31.5,158.4 30.3,159.1 		"/>
		<polygon class="st33" points="28.6,135.3 21.1,139.6 20.9,138.7 28.4,134.4 		"/>
		<polygon class="st33" points="31.2,133.8 29.3,134.8 29.2,133.9 31,132.9 		"/>
		<polygon class="st33" points="44.4,132.9 36.9,137.2 36.7,136.3 44.2,132 		"/>
		<polygon class="st33" points="47,131.4 45.2,132.4 45,131.5 46.9,130.5 		"/>
		<polygon class="st33" points="23.4,140.5 21.4,141.7 21.3,140.8 23.3,139.6 		"/>
		<polygon class="st33" points="35.8,137.8 33.8,139 33.6,138.1 35.6,136.9 		"/>
		<polygon class="st33" points="28.2,137.7 24.2,140 24.1,139.1 28.1,136.8 		"/>
		<polygon class="st33" points="30.3,136.6 29,137.3 28.8,136.4 30.1,135.6 		"/>
		<polygon class="st33" points="35.1,133.8 31.1,136.1 30.9,135.2 34.9,132.9 		"/>
		<polygon class="st33" points="37.1,132.6 35.8,133.3 35.7,132.4 37,131.7 		"/>
		<polygon class="st33" points="35.5,135.8 33.4,137 33.3,136.1 35.3,134.9 		"/>
		<polygon class="st33" points="40.2,133 36.2,135.3 36.1,134.4 40.1,132.1 		"/>
		<polygon class="st33" points="42.3,131.9 41,132.6 40.9,131.7 42.1,131 		"/>
		<polygon class="st33" points="25.9,141.3 21.8,143.7 21.6,142.8 25.8,140.4 		"/>
		<polygon class="st33" points="29.7,139.1 26.7,140.8 26.5,139.9 29.5,138.2 		"/>
		<polygon class="st33" points="32.5,137.5 30.5,138.6 30.3,137.8 32.4,136.6 		"/>
		<polygon class="st33" points="52.2,128.4 48.1,130.8 47.9,129.9 52.1,127.5 		"/>
		<polygon class="st33" points="56,126.2 53,127.9 52.9,127 55.9,125.3 		"/>
		<polygon class="st33" points="58.8,124.5 56.8,125.7 56.6,124.8 58.7,123.6 		"/>
		<polygon class="st33" points="50.6,155.4 54.8,153 54.9,153.9 50.8,156.3 		"/>
		<polygon class="st33" points="46.8,157.6 49.8,155.8 50,156.7 47,158.4 		"/>
		<polygon class="st33" points="44,159.2 46,158 46.2,158.9 44.1,160.1 		"/>
		<polygon class="st33" points="49.2,158.4 53.4,156 53.5,156.9 49.4,159.3 		"/>
		<polygon class="st33" points="45.4,160.6 48.4,158.9 48.6,159.8 45.6,161.5 		"/>
		<polygon class="st33" points="42.6,162.2 44.6,161.1 44.8,161.9 42.8,163.1 		"/>
		<polygon class="st33" points="32.4,154.6 33.8,153.8 34,154.7 32.6,155.5 		"/>
		<polygon class="st33" points="29.8,156.2 31.7,155.1 31.8,156 30,157.1 		"/>
		<polygon class="st33" points="26.3,143.3 22.1,145.7 22,144.8 26.1,142.4 		"/>
		<polygon class="st33" points="30.1,141.1 27.1,142.9 26.9,142 29.9,140.3 		"/>
		<polygon class="st33" points="32.9,139.5 30.9,140.7 30.7,139.8 32.7,138.6 		"/>
		<polygon class="st33" points="23.9,147 22.5,147.8 22.3,146.9 23.7,146.1 		"/>
		<polygon class="st33" points="26.5,145.4 24.7,146.5 24.5,145.6 26.4,144.5 		"/>
		<polygon class="st33" points="30.3,143.3 27.3,145 27.2,144.1 30.1,142.4 		"/>
		<polygon class="st33" points="34.4,160.3 35.8,159.4 35.9,160.4 34.5,161.2 		"/>
		<polygon class="st33" points="31.7,161.8 33.6,160.7 33.7,161.6 31.9,162.7 		"/>
		<polygon class="st33" points="27.9,164 30.9,162.3 31.1,163.1 28.1,164.9 		"/>
		<polygon class="st33" points="36.5,156.9 39.5,155.2 39.6,156.1 36.6,157.8 		"/>
		<polygon class="st33" points="31.6,159.6 35.6,157.3 35.8,158.2 31.8,160.5 		"/>
		<polygon class="st33" points="29.5,160.8 30.8,160.1 31,161 29.7,161.7 		"/>
		<polygon class="st33" points="27.6,161.9 28.8,161.2 29,162.1 27.7,162.8 		"/>
		<polygon class="st33" points="27.9,150.4 31.8,148.1 32,149 28,151.3 		"/>
		<polygon class="st33" points="25.8,151.6 27.1,150.8 27.2,151.7 26,152.5 		"/>
		<polygon class="st33" points="28.1,148 29.5,147.2 29.7,148.1 28.3,148.9 		"/>
		<polygon class="st33" points="33.1,149.6 34.5,148.8 34.6,149.7 33.2,150.5 		"/>
		<polygon class="st33" points="35.1,148.5 38.5,146.5 38.6,147.4 35.2,149.4 		"/>
		<polygon class="st33" points="39,146.2 41,145 41.2,145.9 39.2,147.1 		"/>
		<polygon class="st33" points="25.5,149.5 27.3,148.4 27.5,149.3 25.6,150.4 		"/>
		<polygon class="st33" points="25.3,147.4 26.7,146.6 26.9,147.5 25.5,148.3 		"/>
		<polygon class="st33" points="22.7,148.9 24.5,147.9 24.7,148.8 22.8,149.8 		"/>
		<polygon class="st33" points="31,150.8 32.3,150.1 32.5,151 31.2,151.7 		"/>
		<polygon class="st33" points="29.1,151.9 30.3,151.2 30.5,152.1 29.2,152.8 		"/>
		<polygon class="st33" points="38.8,162.2 43.1,159.7 43.2,160.6 38.9,163.1 		"/>
		<polygon class="st33" points="34,165 38,162.7 38.1,163.6 34.1,165.9 		"/>
		<polygon class="st33" points="31.9,166.2 33.2,165.4 33.3,166.3 32,167.1 		"/>
		<polygon class="st33" points="29.9,167.3 31.2,166.6 31.3,167.5 30.1,168.2 		"/>
		<polygon class="st33" points="28.9,167.9 26.1,169.5 26.3,170.4 29,168.8 		"/>
		<path class="st0" d="M438.3,225.4c-1.1,0-2.1-0.3-3-0.8l-59.3-34.3c-0.8-0.5-1.1-1.5-0.7-2.3c0.2-0.3,0.4-0.5,0.7-0.7l37.3-21.5
			l0.2,0.1l62.1,35.9c0.8,0.4,1.1,1.5,0.7,2.3c-0.2,0.3-0.4,0.5-0.7,0.7l-34.3,19.8C440.3,225.1,439.3,225.4,438.3,225.4z
			 M435.6,224c1.6,0.9,3.6,0.9,5.3,0l34.3-19.8c0.3-0.2,0.5-0.5,0.5-0.9c0-0.4-0.2-0.7-0.5-0.9l-62-35.8l-0.1,0.1l-36.9,21.3
			c-0.5,0.3-0.7,1-0.4,1.5c0.1,0.2,0.2,0.3,0.4,0.4L435.6,224z"/>
		
			<linearGradient id="SVGID_34_" gradientUnits="userSpaceOnUse" x1="14.2877" y1="40.0228" x2="90.5735" y2="40.0228" gradientTransform="matrix(-1 0 0 -1 503.77 187.3298)">
			<stop  offset="0" style="stop-color:#C0BFF6"/>
			<stop  offset="0.29" style="stop-color:#C5C4F7"/>
			<stop  offset="0.64" style="stop-color:#D3D2F9"/>
			<stop  offset="1" style="stop-color:#E9E9FD"/>
		</linearGradient>
		<path class="st50" d="M413.2,152l8.3-49l-0.7-0.3l1-0.6l0,0c0.2-0.1,0.5-0.1,0.8,0.1l66,38.1c0.6,0.4,0.9,1,0.9,1.7l-8.3,49.4
			c0,0.2-0.1,0.4-0.3,0.5l0,0l-1,0.6l-0.2-0.9h0.1L414,153.7C413.5,153.3,413.2,152.7,413.2,152z"/>
		
			<linearGradient id="SVGID_35_" gradientUnits="userSpaceOnUse" x1="14.2865" y1="20.4698" x2="27.3865" y2="20.4698" gradientTransform="matrix(-1 0 0 -1 503.77 187.3298)">
			<stop  offset="0" style="stop-color:#5761D7"/>
			<stop  offset="0.18" style="stop-color:#5C66D9"/>
			<stop  offset="0.39" style="stop-color:#6A73DF"/>
			<stop  offset="0.61" style="stop-color:#8289E8"/>
			<stop  offset="0.85" style="stop-color:#A3A7F5"/>
			<stop  offset="1" style="stop-color:#BCBEFF"/>
		</linearGradient>
		<path class="st51" d="M488.3,141.7l1.1-0.5c0.1,0.3,0.2,0.5,0.1,0.8l-8.3,49.4c0,0.2-0.1,0.4-0.3,0.5l0,0l-1,0.6l-0.2-0.9h0.1
			l-3.3-1.9L488.3,141.7z"/>
		<path class="st30" d="M413,154.3l66,38.1c0.5,0.3,1,0.1,1-0.4l8.3-49.4c0-0.7-0.3-1.3-0.9-1.7l-66-38.1c-0.5-0.3-1-0.1-1,0.4
			l-8.3,49.4C412.1,153.3,412.4,154,413,154.3z"/>
		<g class="st31">
			<polygon class="st32" points="422.4,106 486.1,142.7 478.2,189.3 414.5,152.5 			"/>
		</g>
		
			<linearGradient id="SVGID_36_" gradientUnits="userSpaceOnUse" x1="24.5" y1="-1.5484" x2="132.27" y2="-1.5484" gradientTransform="matrix(-1 0 0 -1 503.77 187.3298)">
			<stop  offset="0" style="stop-color:#5761D7"/>
			<stop  offset="0.18" style="stop-color:#5C66D9"/>
			<stop  offset="0.39" style="stop-color:#6A73DF"/>
			<stop  offset="0.61" style="stop-color:#8289E8"/>
			<stop  offset="0.85" style="stop-color:#A3A7F5"/>
			<stop  offset="1" style="stop-color:#BCBEFF"/>
		</linearGradient>
		<path class="st52" d="M371.5,177.7l3.6,1.9l36.1-20.9c0.8-0.3,1.6-0.3,2.4,0.1l62.3,36c0.6-0.3,3.3-1.6,3.3-1.6l-1.3,3.4l0,0
			c-0.1,0.2-0.2,0.3-0.4,0.4l-38.1,22c-0.8,0.3-1.6,0.3-2.4-0.1l-63.8-36.8c-0.2-0.1-0.4-0.3-0.5-0.6l0,0L371.5,177.7z"/>
		
			<linearGradient id="SVGID_37_" gradientUnits="userSpaceOnUse" x1="60.71" y1="2.0598" x2="168.5197" y2="2.0598" gradientTransform="matrix(-1 0 0 -1 503.77 187.3298)">
			<stop  offset="0" style="stop-color:#C0BFF6"/>
			<stop  offset="0.29" style="stop-color:#C5C4F7"/>
			<stop  offset="0.64" style="stop-color:#D3D2F9"/>
			<stop  offset="1" style="stop-color:#E9E9FD"/>
		</linearGradient>
		<path class="st53" d="M372.1,178.3l65.4,37.7c0.7,0.4,1.6,0.5,2.4,0.1l39-22.5c0.6-0.4,0.5-1-0.2-1.4l-65.4-37.7
			c-0.7-0.4-1.6-0.5-2.4-0.1l-39,22.5C371.3,177.3,371.3,177.9,372.1,178.3z"/>
		<path class="st11" d="M372.1,177.9l65.4,37.8c0.7,0.4,1.6,0.4,2.4,0.1l39-22.5c0.2-0.1,0.3-0.2,0.4-0.4c0.1,0.3-0.1,0.7-0.4,0.8
			l-39,22.5c-0.8,0.4-1.7,0.3-2.4-0.1l-65.4-37.7c-0.5-0.3-0.7-0.6-0.5-1C371.6,177.6,371.8,177.8,372.1,177.9z"/>
		<path class="st42" d="M457.1,207.9v-0.7c0-0.1,0-0.1-0.1-0.1l-2.5,1.5c-0.1,0-0.1,0.1-0.1,0.2v0.7c0,0.1,0,0.1,0.1,0.1l2.5-1.5
			C457.1,208,457.1,208,457.1,207.9z"/>
		<path class="st42" d="M453.4,210.1v-0.7c0,0,0-0.1-0.1-0.1c0,0,0,0,0,0l-2.5,1.5c-0.1,0-0.1,0.1-0.1,0.2v0.7c0,0.1,0,0.1,0.1,0.1
			l2.5-1.5C453.3,210.2,453.4,210.1,453.4,210.1z"/>
		<path class="st43" d="M468.7,191.5l-54.3-31.4c-0.4-0.2-0.8-0.2-1.2,0l-19.3,11.2c-0.2,0.1-0.3,0.4-0.2,0.6c0,0.1,0.1,0.1,0.2,0.2
			l54.3,31.4c0.4,0.2,0.8,0.2,1.2,0l19.4-11.2c0.2-0.1,0.3-0.3,0.2-0.5C468.9,191.6,468.8,191.6,468.7,191.5z"/>
		<path class="st44" d="M468.7,192.2l-0.2,0.1l-54.1-31.3c-0.4-0.2-0.8-0.2-1.2,0L394,172.2l-0.2-0.1c-0.2-0.1-0.3-0.4-0.2-0.6
			c0-0.1,0.1-0.1,0.2-0.2l19.3-11.2c0.4-0.2,0.8-0.2,1.2,0l54.3,31.4c0.2,0.1,0.3,0.4,0.2,0.6C468.8,192.1,468.8,192.2,468.7,192.2z
			"/>
		<polygon class="st30" points="411.7,163 458.9,190.2 461,189 413.8,161.8 		"/>
		<polygon class="st30" points="406.6,166 450.9,191.5 453,190.3 408.7,164.8 		"/>
		<polygon class="st30" points="403.3,167.9 455.4,198 457.5,196.8 405.3,166.7 		"/>
		<polygon class="st30" points="399.9,169.8 452,199.9 454.1,198.7 402,168.6 		"/>
		<polygon class="st30" points="396.5,171.8 448.7,201.9 450.8,200.6 398.6,170.6 		"/>
		<polygon class="st30" points="461.8,191.9 463.9,193.1 466,191.9 463.9,190.7 		"/>
		<polygon class="st30" points="454.4,193.6 458.7,196.1 460.8,194.9 456.5,192.3 		"/>
		
			<linearGradient id="SVGID_38_" gradientUnits="userSpaceOnUse" x1="78.9719" y1="-4.0615" x2="106.575" y2="-4.0615" gradientTransform="matrix(-1 0 0 -1 503.77 187.3298)">
			<stop  offset="0" style="stop-color:#C0BFF6"/>
			<stop  offset="0.29" style="stop-color:#C5C4F7"/>
			<stop  offset="0.64" style="stop-color:#D3D2F9"/>
			<stop  offset="1" style="stop-color:#E9E9FD"/>
		</linearGradient>
		<path class="st54" d="M412.3,199.1l-14.7-8.5c-0.6-0.3-0.6-0.9,0-1.2l10-5.8c0.7-0.3,1.4-0.3,2.1,0l14.6,8.5
			c0.3,0.1,0.5,0.5,0.4,0.8c-0.1,0.2-0.2,0.3-0.4,0.4l-10,5.8C413.7,199.4,412.9,199.4,412.3,199.1z"/>
		<path class="st44" d="M424.4,192.6l-14.6-8.5c-0.7-0.3-1.4-0.3-2.1,0l-10,5.8c-0.2,0.1-0.3,0.2-0.4,0.4c-0.1-0.3,0-0.6,0.4-0.9
			l10-5.8c0.7-0.3,1.4-0.3,2.1,0l14.6,8.5c0.4,0.2,0.5,0.5,0.4,0.8C424.6,192.8,424.5,192.7,424.4,192.6z"/>
		<g class="st46">
			<g>
				<defs>
					<polygon id="SVGID_39_" points="422.4,106 486.1,142.7 478.2,189.3 414.5,152.5 					"/>
				</defs>
				<clipPath id="SVGID_40_">
					<use xlink:href="#SVGID_39_"  style="overflow:visible;"/>
				</clipPath>
				<g class="st55">
					
						<linearGradient id="SVGID_41_" gradientUnits="userSpaceOnUse" x1="19.52" y1="25.9289" x2="127.3297" y2="25.9289" gradientTransform="matrix(-1 0 0 -1 503.77 187.3298)">
						<stop  offset="0" style="stop-color:#C0BFF6"/>
						<stop  offset="0.29" style="stop-color:#C5C4F7"/>
						<stop  offset="0.64" style="stop-color:#D3D2F9"/>
						<stop  offset="1" style="stop-color:#E9E9FD"/>
					</linearGradient>
					<path class="st56" d="M413.3,154.4l65.4,37.8c0.7,0.4,1.6,0.4,2.4,0.1l39-22.5c0.6-0.4,0.5-1-0.2-1.4l-65.4-37.7
						c-0.7-0.4-1.6-0.5-2.4-0.1l-39,22.5C412.5,153.4,412.5,154,413.3,154.4z"/>
					
						<linearGradient id="SVGID_42_" gradientUnits="userSpaceOnUse" x1="12.42" y1="33.8748" x2="40.0056" y2="33.8748" gradientTransform="matrix(-1 0 0 -1 503.77 187.3298)">
						<stop  offset="0" style="stop-color:#C0BFF6"/>
						<stop  offset="0.29" style="stop-color:#C5C4F7"/>
						<stop  offset="0.64" style="stop-color:#D3D2F9"/>
						<stop  offset="1" style="stop-color:#E9E9FD"/>
					</linearGradient>
					<path class="st57" d="M478.8,161.2l-14.7-8.5c-0.3-0.1-0.5-0.5-0.4-0.8c0.1-0.2,0.2-0.3,0.4-0.4l10-5.8c0.7-0.3,1.4-0.3,2.1,0
						l14.7,8.4c0.6,0.3,0.6,0.9,0,1.2l-10,5.8C480.2,161.5,479.5,161.5,478.8,161.2z"/>
					<path class="st44" d="M490.9,154.7l-14.7-8.4c-0.7-0.3-1.4-0.3-2.1,0l-10,5.8c-0.1,0.1-0.3,0.2-0.4,0.4c-0.2-0.3,0-0.6,0.4-0.8
						l10-5.8c0.7-0.3,1.4-0.3,2.1,0l14.7,8.4c0.4,0.2,0.5,0.6,0.4,0.9C491.2,154.9,491.1,154.8,490.9,154.7z"/>
					<path class="st43" d="M497.4,174.4L443,143.1c-0.4-0.2-0.8-0.2-1.2,0l-19.3,11.2c-0.2,0.1-0.3,0.4-0.2,0.6
						c0,0.1,0.1,0.1,0.2,0.2l54.3,31.4c0.4,0.2,0.8,0.2,1.2,0l19.4-11.2c0.2-0.1,0.3-0.4,0.1-0.6
						C497.5,174.5,497.4,174.5,497.4,174.4z"/>
					<path class="st44" d="M497.4,175.1l-0.2,0.1L443,144c-0.4-0.2-0.8-0.2-1.2,0L422.7,155l-0.2-0.1c-0.2-0.1-0.3-0.4-0.2-0.6
						c0-0.1,0.1-0.1,0.2-0.2l19.3-11.2c0.4-0.2,0.8-0.2,1.2,0l54.3,31.4C497.5,174.6,497.6,174.8,497.4,175.1
						C497.4,175.1,497.4,175.1,497.4,175.1z"/>
					<polygon class="st30" points="427.6,153.5 474.9,180.8 473,181.9 425.7,154.5 					"/>
					<polygon class="st30" points="432.6,150.6 477.5,176.6 475.7,177.6 430.7,151.7 					"/>
					<polygon class="st30" points="480.9,178.5 485.1,180.9 483.2,182 479,179.6 					"/>
					<polygon class="st30" points="477.2,182.1 480.1,183.8 478.3,184.9 475.3,183.2 					"/>
					<polygon class="st30" points="435.7,148.8 488.2,179.1 486.4,180.2 433.8,149.9 					"/>
					<polygon class="st30" points="438.8,147 491.4,177.3 489.5,178.4 436.9,148.1 					"/>
					<polygon class="st30" points="441.9,145.2 494.5,175.5 492.6,176.6 440.1,146.3 					"/>
				</g>
			</g>
		</g>
		<polygon class="st33" points="436.4,123.4 441.6,126.4 441.7,125.5 436.6,122.6 		"/>
		<polygon class="st33" points="442.4,126.9 445.2,128.5 445.4,127.6 442.5,126 		"/>
		<polygon class="st33" points="449.6,131.1 451.6,132.2 451.8,131.3 449.7,130.1 		"/>
		<polygon class="st33" points="448.1,130.2 448.8,130.6 448.9,129.7 448.2,129.3 		"/>
		<polygon class="st33" points="446,129 447.3,129.7 447.4,128.8 446.2,128.1 		"/>
		<polygon class="st33" points="440.5,130.3 442.5,131.5 442.7,130.6 440.6,129.4 		"/>
		<polygon class="st33" points="435.7,127.5 439.7,129.8 439.9,128.9 435.9,126.6 		"/>
		<polygon class="st33" points="441.4,142 445.4,144.3 445.6,143.4 441.6,141.1 		"/>
		<polygon class="st33" points="439.4,140.9 440.6,141.6 440.8,140.7 439.5,140 		"/>
		<polygon class="st33" points="442.1,137.9 446.1,140.2 446.2,139.4 442.2,137.1 		"/>
		<polygon class="st33" points="440,136.8 441.3,137.5 441.5,136.6 440.2,135.9 		"/>
		<polygon class="st33" points="438.5,159.7 431,155.4 430.8,156.3 438.3,160.6 		"/>
		<polygon class="st33" points="441.1,161.2 439.3,160.1 439.1,161 441,162.1 		"/>
		<polygon class="st33" points="454.3,162.1 446.8,157.8 446.7,158.6 454.1,163 		"/>
		<polygon class="st33" points="456.9,163.6 455.1,162.5 454.9,163.4 456.8,164.5 		"/>
		<polygon class="st33" points="433.4,154.5 431.3,153.3 431.2,154.2 433.2,155.4 		"/>
		<polygon class="st33" points="445.7,157.1 443.7,156 443.5,156.9 445.6,158 		"/>
		<polygon class="st33" points="438.1,157.3 434.2,154.9 434,155.8 438,158.1 		"/>
		<polygon class="st33" points="440.2,158.4 438.9,157.7 438.8,158.6 440,159.3 		"/>
		<polygon class="st33" points="445,161.2 441,158.9 440.9,159.8 444.8,162.1 		"/>
		<polygon class="st33" points="447,162.4 445.8,161.7 445.6,162.6 446.9,163.3 		"/>
		<polygon class="st33" points="445.4,159.2 443.4,158 443.2,158.9 445.2,160.1 		"/>
		<polygon class="st33" points="450.1,161.9 446.2,159.6 446,160.5 450,162.8 		"/>
		<polygon class="st33" points="452.2,163.1 450.9,162.4 450.8,163.3 452,164 		"/>
		<polygon class="st33" points="435.8,153.7 431.7,151.3 431.5,152.2 435.7,154.6 		"/>
		<polygon class="st33" points="439.6,155.9 436.6,154.1 436.5,155 439.5,156.8 		"/>
		<polygon class="st33" points="442.4,157.5 440.4,156.3 440.3,157.2 442.3,158.4 		"/>
		<polygon class="st33" points="462.1,166.6 458,164.2 457.8,165.1 462,167.5 		"/>
		<polygon class="st33" points="465.9,168.8 462.9,167.1 462.8,168 465.8,169.7 		"/>
		<polygon class="st33" points="468.8,170.4 466.7,169.3 466.6,170.1 468.6,171.3 		"/>
		<polygon class="st33" points="460.5,139.6 464.7,142 464.8,141.1 460.7,138.7 		"/>
		<polygon class="st33" points="456.7,137.4 459.7,139.2 459.9,138.3 456.9,136.5 		"/>
		<polygon class="st33" points="453.9,135.8 455.9,137 456.1,136.1 454.1,134.9 		"/>
		<polygon class="st33" points="459.1,136.6 463.3,139 463.4,138.1 459.3,135.7 		"/>
		<polygon class="st33" points="455.4,134.4 458.4,136.1 458.5,135.2 455.5,133.5 		"/>
		<polygon class="st33" points="452.5,132.8 454.6,133.9 454.7,133 452.7,131.9 		"/>
		<polygon class="st33" points="442.4,140.3 443.8,141.2 443.9,140.3 442.5,139.4 		"/>
		<polygon class="st33" points="439.7,138.8 441.6,139.9 441.7,139 439.9,137.9 		"/>
		<polygon class="st33" points="436.2,151.6 432.1,149.2 431.9,150.1 436.1,152.5 		"/>
		<polygon class="st33" points="440,153.8 437,152.1 436.9,153 439.9,154.7 		"/>
		<polygon class="st33" points="442.8,155.5 440.8,154.3 440.6,155.2 442.7,156.4 		"/>
		<polygon class="st33" points="433.8,148 432.4,147.2 432.3,148.1 433.6,148.9 		"/>
		<polygon class="st33" points="436.4,149.5 434.6,148.5 434.4,149.4 436.3,150.4 		"/>
		<polygon class="st33" points="440.2,151.7 437.2,150 437.1,150.9 440.1,152.6 		"/>
		<polygon class="st33" points="444.3,134.7 445.7,135.5 445.8,134.6 444.4,133.8 		"/>
		<polygon class="st33" points="441.6,133.2 443.5,134.3 443.6,133.4 441.8,132.3 		"/>
		<polygon class="st33" points="437.9,131 440.9,132.7 441,131.8 438,130.1 		"/>
		<polygon class="st33" points="446.4,138 449.4,139.8 449.5,138.9 446.6,137.1 		"/>
		<polygon class="st33" points="441.5,135.4 445.5,137.7 445.7,136.8 441.7,134.5 		"/>
		<polygon class="st33" points="439.5,134.2 440.7,134.9 440.9,134 439.6,133.3 		"/>
		<polygon class="st33" points="437.5,133 438.8,133.8 438.9,132.9 437.7,132.1 		"/>
		<polygon class="st33" points="437.8,144.6 441.8,146.9 441.9,146 437.9,143.7 		"/>
		<polygon class="st33" points="435.7,143.4 437,144.1 437.1,143.2 435.9,142.5 		"/>
		<polygon class="st33" points="438.1,147 439.5,147.8 439.6,146.9 438.2,146.1 		"/>
		<polygon class="st33" points="443,145.4 444.4,146.2 444.6,145.3 443.2,144.5 		"/>
		<polygon class="st33" points="445,146.5 448.4,148.5 448.5,147.6 445.2,145.6 		"/>
		<polygon class="st33" points="449,148.8 451,150 451.1,149.1 449.1,147.9 		"/>
		<polygon class="st33" points="435.4,145.5 437.3,146.5 437.4,145.6 435.6,144.6 		"/>
		<polygon class="st33" points="435.2,147.6 436.6,148.4 436.8,147.5 435.4,146.7 		"/>
		<polygon class="st33" points="432.6,146 434.4,147.1 434.6,146.2 432.8,145.1 		"/>
		<polygon class="st33" points="441,144.2 442.2,144.9 442.4,144 441.1,143.3 		"/>
		<polygon class="st33" points="439,143 440.3,143.8 440.4,142.9 439.2,142.1 		"/>
		<polygon class="st33" points="448.7,132.8 453,135.3 453.1,134.4 448.8,131.9 		"/>
		<polygon class="st33" points="443.9,130 447.9,132.3 448,131.4 444,129.1 		"/>
		<polygon class="st33" points="441.8,128.8 443.1,129.5 443.2,128.6 442,127.9 		"/>
		<polygon class="st33" points="439.9,127.7 441.1,128.4 441.3,127.5 440,126.8 		"/>
		<polygon class="st33" points="438.8,127 436.1,125.5 436.2,124.6 438.9,126.2 		"/>
		<path class="st0" d="M160.6,268.9c-0.9,0-1.7-0.2-2.5-0.7l-74.1-42.8c-0.8-0.4-1-1.4-0.6-2.2c0.1-0.2,0.3-0.4,0.6-0.6l65.1-37.6
			l0.3,0.6l-65.1,37.6c-0.3,0.2-0.5,0.5-0.5,0.8c0,0.3,0.2,0.6,0.5,0.8l74.1,42.8c1.3,0.8,3,0.8,4.3,0l38.4-22.2l0.3,0.6l-38.4,22.2
			C162.4,268.7,161.5,268.9,160.6,268.9z"/>
	</g>
</g>
</svg>
